<svg xmlns="http://www.w3.org/2000/svg" xmlns:xlink="http://www.w3.org/1999/xlink" width="3240" zoomAndPan="magnify" viewBox="0 0 2430 1134.749944" height="1513" preserveAspectRatio="xMidYMid meet" version="1.0"><defs><g/><clipPath id="37e63cb47f"><path d="M 0.269531 0 L 1087 0 L 1087 1134.5 L 0.269531 1134.5 Z M 0.269531 0 " clip-rule="nonzero"/></clipPath><clipPath id="64fc3dab0f"><path d="M 0.269531 0 L 1444 0 L 1444 1110 L 0.269531 1110 Z M 0.269531 0 " clip-rule="nonzero"/></clipPath><clipPath id="d11c5e968a"><path d="M 1031 0 L 2429.730469 0 L 2429.730469 1123 L 1031 1123 Z M 1031 0 " clip-rule="nonzero"/></clipPath><clipPath id="54e40776c4"><path d="M 1397 0 L 2429.730469 0 L 2429.730469 1134.5 L 1397 1134.5 Z M 1397 0 " clip-rule="nonzero"/></clipPath><clipPath id="c1192e1137"><path d="M 0.269531 0 L 1123 0 L 1123 1134.5 L 0.269531 1134.5 Z M 0.269531 0 " clip-rule="nonzero"/></clipPath><clipPath id="859f26c99d"><path d="M 0.269531 0 L 1562 0 L 1562 1134.5 L 0.269531 1134.5 Z M 0.269531 0 " clip-rule="nonzero"/></clipPath><clipPath id="74787cb96f"><path d="M 360 0 L 2029 0 L 2029 1134.5 L 360 1134.5 Z M 360 0 " clip-rule="nonzero"/></clipPath><clipPath id="c990779e8b"><path d="M 829 0 L 2429.730469 0 L 2429.730469 1134.5 L 829 1134.5 Z M 829 0 " clip-rule="nonzero"/></clipPath><clipPath id="61e1a27db7"><path d="M 1271 0 L 2429.730469 0 L 2429.730469 1134.5 L 1271 1134.5 Z M 1271 0 " clip-rule="nonzero"/></clipPath></defs><g clip-path="url(#37e63cb47f)"><path stroke-linecap="butt" transform="matrix(9.651149, -2.30849, 2.30849, 9.651149, 49.295105, 117.155843)" fill="none" stroke-linejoin="miter" d="M 19.153668 30.252797 C 19.153471 28.248455 19.063417 26.870211 18.883033 26.118357 C 18.702557 25.366885 18.372 24.990736 17.890704 24.990965 C 17.590045 24.990689 17.319533 25.091121 17.078969 25.291402 C 17.11893 25.652278 17.179116 26.133345 17.259054 26.734893 C 17.339466 27.336149 17.379472 28.619045 17.379455 30.583671 L 17.37943 32.538176 C 17.379674 33.90101 17.349503 34.893512 17.289102 35.514918 C 17.229174 36.136033 17.178932 36.667587 17.139031 37.108524 C 17.118759 37.34895 17.09887 37.589468 17.078981 37.829986 C 17.319239 38.030329 17.589888 38.130684 17.890639 38.130577 C 18.371844 38.13073 18.702562 37.754903 18.882794 37.003095 C 19.063409 36.251378 19.153427 34.873303 19.153704 32.86867 Z M 7.937915 51.029868 C 5.71302 51.029928 3.994233 50.438694 2.781172 49.256076 C 1.568585 48.073167 0.962353 46.28935 0.962279 43.903768 L 0.962072 16.842498 C 0.962196 15.319069 2.490628 14.030874 5.547661 12.978386 C 8.604601 11.926281 12.0174 11.400062 15.785965 11.400111 C 22.420933 11.400147 27.602672 13.003449 31.33138 16.210875 C 35.340567 19.658619 37.345019 24.800323 37.344738 31.635987 C 37.344764 37.790133 35.405488 42.560833 31.526821 45.948468 C 27.64777 49.336012 22.320828 51.03024 15.545413 51.030204 Z M 7.937915 51.029868 " stroke="#d269e6" stroke-width="10.624103" stroke-opacity="1" stroke-miterlimit="4"/></g><g clip-path="url(#64fc3dab0f)"><path stroke-linecap="butt" transform="matrix(9.82014, -1.427813, 1.427813, 9.82014, 449.061981, 24.126927)" fill="none" stroke-linejoin="miter" d="M 14.492883 12.211808 L 31.842454 12.211657 C 32.423697 13.174067 32.854589 14.221221 33.135406 15.353955 C 33.415834 16.486633 33.556318 17.503894 33.556412 18.406072 C 33.556442 20.430376 33.160295 21.953951 32.368472 22.976074 C 31.576983 23.998643 30.469228 24.509827 29.045986 24.509738 L 16.928442 24.509656 C 16.186983 24.509648 15.816113 24.8006 15.815948 25.381732 L 15.815962 25.62239 C 15.815997 25.742525 15.836173 25.822628 15.876043 25.863031 L 30.24864 25.862822 C 30.60978 26.484155 30.92014 27.265968 31.180946 28.208041 C 31.421287 29.230672 31.541714 30.14239 31.541668 30.944307 C 31.54169 33.329793 31.100772 35.19412 30.218523 36.537231 L 23.693744 36.537255 C 20.646795 36.536968 18.582233 36.652467 17.499782 36.882918 C 16.417331 37.113368 15.745695 37.308878 15.485321 37.469115 C 15.224785 37.649615 15.094224 37.88004 15.09436 38.160892 C 15.094163 38.441298 15.234737 38.661819 15.5153 38.822344 C 16.557722 38.481457 17.649996 38.2409 18.792901 38.100784 C 20.296211 37.960563 21.92978 37.890196 23.693941 37.890131 L 32.143154 37.890274 C 33.365873 39.614221 33.977139 41.688812 33.977284 44.114492 C 33.977234 45.477278 33.806873 46.780296 33.466258 48.023157 C 33.125254 49.265961 32.613942 50.268407 31.93277 51.030162 L 9.411297 51.030141 C 6.925606 51.029914 4.931022 50.428845 3.427714 49.225765 C 1.784039 47.943008 0.962092 46.05895 0.962318 43.573259 L 0.962362 14.978094 C 0.962251 14.01585 2.064691 13.314153 4.269624 12.873392 C 6.474615 12.432242 9.882628 12.211752 14.492883 12.211808 Z M 14.492883 12.211808 " stroke="#d269e6" stroke-width="10.624103" stroke-opacity="1" stroke-miterlimit="4"/></g><path stroke-linecap="butt" transform="matrix(9.912639, -0.461949, 0.461949, 9.912639, 813.153078, -29.578847)" fill="none" stroke-linejoin="miter" d="M 34.037442 51.541058 C 31.29118 51.541149 29.136145 51.090393 27.572766 50.188024 C 25.888673 49.24614 24.976662 47.913067 24.83632 46.18918 L 24.565705 43.362532 C 26.409998 42.921611 27.963457 41.779095 29.226475 39.935002 C 29.567202 39.413766 29.737578 38.962617 29.737585 38.581948 C 29.737449 38.06059 29.476908 37.799792 28.955944 37.799946 L 28.865696 37.800075 C 28.845458 37.820018 28.805586 37.829982 28.745296 37.82993 C 27.342221 40.776797 25.067173 42.250199 21.919759 42.250116 C 20.316291 42.250264 18.947896 41.899219 17.815326 41.197803 C 16.682774 40.495995 15.645755 39.283197 14.703483 37.559375 L 14.522988 37.559633 C 13.981933 37.55964 13.711105 37.790158 13.711311 38.250833 C 13.711337 38.571605 13.831253 38.932642 14.071865 39.333588 C 14.873866 40.676509 15.876196 41.72888 17.078854 42.490702 C 18.021132 43.13202 19.013381 43.512825 20.055601 43.633115 L 19.815191 49.316188 C 18.61232 50.09792 17.344616 50.664228 16.011292 51.015075 C 14.678361 51.36594 12.784181 51.541299 10.32836 51.541132 C 7.872913 51.541377 5.683039 51.060232 3.758721 50.098089 C 1.393089 48.915193 0.210638 47.271602 0.210599 45.166885 C 0.210424 42.54081 0.731736 36.055895 1.774123 25.712515 C 2.335151 20.32023 2.786235 16.551503 3.126962 14.406709 C 5.191911 12.562551 8.238855 11.640562 12.267813 11.640349 C 15.194551 11.640394 17.620028 12.181778 19.544262 13.264107 L 21.198056 18.79665 L 20.145615 23.216725 C 20.065783 23.517619 20.025448 23.808137 20.025377 24.08871 C 20.025377 24.790544 20.426278 25.151278 21.228454 25.171322 L 24.084872 13.294438 C 24.906576 12.85315 25.979083 12.467293 27.302017 12.136453 C 28.624933 11.806006 30.06824 11.640373 31.631902 11.64034 C 34.558641 11.640385 36.728495 12.136754 38.141878 13.129074 C 39.554885 14.120982 40.391744 15.789845 40.652472 18.13527 C 40.712703 18.57628 40.802739 19.307924 40.92297 20.330222 C 42.7472 36.005733 43.659212 45.236709 43.6594 48.02317 C 41.434349 50.368608 38.226767 51.541226 34.037442 51.541058 Z M 34.037442 51.541058 " stroke="#d269e6" stroke-width="10.624103" stroke-opacity="1" stroke-miterlimit="4"/><path stroke-linecap="butt" transform="matrix(9.908029, 0.552064, -0.552064, 9.908029, 1285.816813, -47.91671)" fill="none" stroke-linejoin="miter" d="M 27.061502 11.670663 C 29.466828 11.670686 31.551654 12.322129 33.315586 13.625012 C 35.079911 14.927874 35.961876 16.782176 35.961853 19.187502 L 35.961759 35.905719 C 35.961583 40.997086 34.408077 44.921285 31.301197 47.677529 C 28.193923 50.433795 23.899243 51.811687 18.416807 51.812012 C 12.934349 51.811944 8.669641 50.458766 5.622682 47.752479 C 2.515807 45.046375 0.962023 41.097398 0.962117 35.905501 L 0.962163 14.46692 C 3.327552 12.582677 6.063594 11.640543 9.170683 11.640496 C 11.776676 11.640377 13.841397 12.32724 15.364803 13.700297 C 16.88821 15.073355 17.650271 17.153147 17.650178 19.939323 L 17.649976 37.46931 C 17.870625 37.629697 18.12622 37.709682 18.416781 37.709656 C 18.707343 37.709631 18.918019 37.634418 19.048438 37.484432 C 19.178443 37.334075 19.243727 37.048154 19.243942 36.627476 L 19.243644 19.909281 C 19.243853 18.646483 19.183665 17.644103 19.063494 16.90251 C 18.94293 16.160939 18.70249 15.418951 18.341826 14.677354 C 20.747045 12.673012 23.653589 11.670519 27.061502 11.670663 Z M 27.061502 11.670663 " stroke="#d269e6" stroke-width="10.624103" stroke-opacity="1" stroke-miterlimit="4"/><g clip-path="url(#d11c5e968a)"><path stroke-linecap="butt" transform="matrix(9.811493, 1.486072, -1.486072, 9.811493, 1686.462749, -24.161965)" fill="none" stroke-linejoin="miter" d="M 17.770331 29.621278 C 17.850727 29.681561 18.081013 29.711577 18.462026 29.711596 C 18.842651 29.711675 19.133602 29.561306 19.334102 29.260607 C 19.534602 28.959909 19.634568 28.468604 19.634509 27.787413 L 19.634577 26.704887 C 19.634732 25.983054 19.549383 25.466866 19.378918 25.156265 C 19.208842 24.845605 18.92812 24.690254 18.537141 24.690151 C 18.146162 24.690048 17.880727 24.730252 17.740387 24.810431 C 17.760325 24.910527 17.770223 25.08102 17.770411 25.321462 Z M 33.2855 36.476876 L 38.487369 41.79909 C 38.126515 44.926115 37.139632 47.331794 35.525822 49.015465 C 33.912013 50.699137 31.681851 51.541353 28.835608 51.541277 C 26.690877 51.541249 24.826266 51.030194 23.242883 50.007547 C 21.218398 48.724845 19.704793 46.680379 18.702398 43.8737 L 17.619883 40.92707 C 16.778024 40.907272 15.715778 40.796638 14.432932 40.596394 C 14.272503 40.756853 14.192411 40.977206 14.192326 41.257901 C 14.192262 41.798969 15.00409 42.119923 16.627691 42.219983 L 18.341757 46.55001 L 18.341849 49.105592 C 16.036543 50.729174 13.07962 51.541325 9.47135 51.54121 C 6.885481 51.541112 4.821176 51.010139 3.277541 49.94763 C 1.733905 48.885122 0.962275 47.341792 0.962143 45.316923 L 0.962154 16.752287 C 0.962294 15.870009 1.774112 15.013296 3.397879 14.181309 C 5.021256 13.349381 7.146302 12.677958 9.772179 12.16677 C 12.398056 11.655581 15.024026 11.399978 17.650089 11.39996 C 23.663852 11.400022 28.364586 12.632903 31.75223 15.098213 C 35.320208 17.684314 37.104271 21.322538 37.104477 26.013274 C 37.104445 28.699463 36.347595 30.999433 34.834045 32.913963 C 33.320825 34.828045 31.411527 36.156351 29.106031 36.898103 C 29.106033 37.53949 29.492195 37.860021 30.263799 37.860202 C 31.035343 37.859995 32.042896 37.399236 33.2855 36.476876 Z M 33.2855 36.476876 " stroke="#d269e6" stroke-width="10.624103" stroke-opacity="1" stroke-miterlimit="4"/></g><g clip-path="url(#54e40776c4)"><path stroke-linecap="butt" transform="matrix(9.637638, 2.364263, -2.364263, 9.637638, 2090.664918, 39.587183)" fill="none" stroke-linejoin="miter" d="M 14.49317 12.211916 L 31.842479 12.211634 C 32.423862 13.173892 32.85469 14.221316 33.135346 15.353811 C 33.416096 16.486689 33.556153 17.50371 33.556181 18.405928 C 33.556315 20.430428 33.160349 21.953857 32.368664 22.976122 C 31.576597 23.998481 30.469435 24.509625 29.046031 24.509834 L 16.928438 24.509912 C 16.18671 24.509884 15.815758 24.800298 15.816151 25.381824 L 15.815949 25.622224 C 15.815895 25.742614 15.835972 25.822805 15.876181 25.862794 L 30.248935 25.862742 C 30.609752 26.484334 30.920311 27.266195 31.180995 28.208229 C 31.421274 29.230657 31.54165 30.142667 31.541739 30.944352 C 31.541712 33.330025 31.100802 35.193998 30.218816 36.53713 L 23.69373 36.537259 C 20.647004 36.537274 18.582185 36.652275 17.499842 36.882933 C 16.417406 37.11321 15.745942 37.308734 15.485358 37.469124 C 15.224492 37.649848 15.094111 37.88003 15.094494 38.160817 C 15.094402 38.441316 15.234442 38.661903 15.515378 38.822392 C 16.557726 38.481572 17.650232 38.241124 18.792801 38.100667 C 20.296161 37.960465 21.929724 37.890056 23.693678 37.890203 L 32.143208 37.890167 C 33.365766 39.613977 33.977277 41.688721 33.977359 44.114493 C 33.977358 45.477557 33.806917 46.780295 33.466132 48.023087 C 33.125346 49.265879 32.614152 50.268378 31.932456 51.030202 L 9.411293 51.030188 C 6.925852 51.029911 4.931312 50.428508 3.427673 49.22598 C 1.783948 47.943114 0.96213 46.058578 0.962025 43.573231 L 0.962306 14.977997 C 0.962161 14.015822 2.064816 13.314477 4.269702 12.873291 C 6.474681 12.432487 9.882314 12.211805 14.49317 12.211916 Z M 14.49317 12.211916 " stroke="#d269e6" stroke-width="10.624103" stroke-opacity="1" stroke-miterlimit="4"/></g><g fill="#ffa5f0" fill-opacity="1"><g transform="translate(167.028075, 609.364455)"><g><path d="M 136.953125 -244.453125 C 132.328125 -263.796875 128.28125 -276.882812 124.8125 -283.71875 C 121.34375 -290.5625 117.28125 -293.425781 112.625 -292.3125 C 109.726562 -291.625 107.347656 -290.03125 105.484375 -287.53125 C 106.703125 -284.144531 108.390625 -279.644531 110.546875 -274.03125 C 112.710938 -268.414062 116.066406 -256.125 120.609375 -237.15625 L 125.125 -218.296875 C 128.257812 -205.148438 130.253906 -195.503906 131.109375 -189.359375 C 131.960938 -183.222656 132.707031 -177.976562 133.34375 -173.625 C 133.707031 -171.257812 134.066406 -168.894531 134.421875 -166.53125 C 137.210938 -165.15625 140.054688 -164.8125 142.953125 -165.5 C 147.609375 -166.613281 149.9375 -171.003906 149.9375 -178.671875 C 149.9375 -186.335938 147.617188 -199.847656 142.984375 -219.203125 Z M 76.671875 -18.046875 C 55.203125 -12.910156 37.25 -14.644531 22.8125 -23.25 C 8.375 -31.863281 -1.59375 -47.679688 -7.09375 -70.703125 L -69.5625 -331.875 C -73.082031 -346.582031 -61.304688 -362.539062 -34.234375 -379.75 C -7.160156 -396.96875 24.566406 -409.925781 60.953125 -418.625 C 124.984375 -433.9375 178.6875 -430.421875 222.0625 -408.078125 C 268.707031 -384.054688 299.921875 -339.0625 315.703125 -273.09375 C 329.910156 -213.6875 322.207031 -163.160156 292.59375 -121.515625 C 262.976562 -79.878906 215.476562 -51.242188 150.09375 -35.609375 Z M 76.671875 -18.046875 "/></g></g></g><g fill="#ffa5f0" fill-opacity="1"><g transform="translate(521.88046, 524.954088)"><g><path d="M 86.9375 -401.59375 L 257.328125 -426.375 C 264.410156 -417.738281 270.132812 -408.0625 274.5 -397.34375 C 278.863281 -386.632812 281.691406 -376.847656 282.984375 -367.984375 C 285.867188 -348.109375 284.15625 -332.582031 277.84375 -321.40625 C 271.53125 -310.238281 261.382812 -303.640625 247.40625 -301.609375 L 128.40625 -284.3125 C 121.125 -283.25 117.898438 -279.863281 118.734375 -274.15625 L 119.078125 -271.78125 C 119.253906 -270.601562 119.566406 -269.847656 120.015625 -269.515625 L 261.15625 -290.03125 C 265.59375 -284.4375 269.757812 -277.203125 273.65625 -268.328125 C 277.488281 -258.640625 279.972656 -249.851562 281.109375 -241.96875 C 284.515625 -218.550781 282.847656 -199.613281 276.109375 -185.15625 L 212.03125 -175.84375 C 182.113281 -171.488281 162.003906 -167.410156 151.703125 -163.609375 C 141.398438 -159.804688 135.085938 -156.929688 132.765625 -154.984375 C 130.441406 -152.828125 129.476562 -150.375 129.875 -147.625 C 130.28125 -144.875 131.976562 -142.914062 134.96875 -141.75 C 144.726562 -146.582031 155.113281 -150.5 166.125 -153.5 C 180.6875 -157.019531 196.628906 -160.039062 213.953125 -162.5625 L 296.9375 -174.625 C 311.394531 -159.445312 320.359375 -139.945312 323.828125 -116.125 C 325.773438 -102.738281 325.957031 -89.703125 324.375 -77.015625 C 322.800781 -64.328125 319.21875 -53.753906 313.625 -45.296875 L 92.46875 -13.140625 C 68.050781 -9.585938 47.601562 -12.644531 31.125 -22.3125 C 13.15625 -32.570312 2.394531 -49.90625 -1.15625 -74.3125 L -41.96875 -355.109375 C -43.34375 -364.554688 -33.519531 -373.019531 -12.5 -380.5 C 8.519531 -387.976562 41.664062 -395.007812 86.9375 -401.59375 Z M 86.9375 -401.59375 "/></g></g></g><g fill="#ffa5f0" fill-opacity="1"><g transform="translate(836.712479, 475.96572)"><g><path d="M 337.640625 -10.34375 C 310.421875 -9.070312 288.851562 -12.550781 272.9375 -20.78125 C 255.8125 -29.332031 246.15625 -42.125 243.96875 -59.15625 L 239.984375 -87.046875 C 258.054688 -92.273438 272.925781 -104.316406 284.59375 -123.171875 C 287.726562 -128.503906 289.207031 -133.054688 289.03125 -136.828125 C 288.789062 -141.992188 286.09375 -144.457031 280.9375 -144.21875 L 280.03125 -144.171875 C 279.84375 -143.960938 279.453125 -143.847656 278.859375 -143.828125 C 266.296875 -113.960938 244.421875 -98.304688 213.234375 -96.859375 C 197.328125 -96.117188 183.601562 -98.960938 172.0625 -105.390625 C 160.519531 -111.816406 149.679688 -123.363281 139.546875 -140.03125 L 137.75 -139.9375 C 132.382812 -139.6875 129.804688 -137.273438 130.015625 -132.703125 C 130.160156 -129.515625 131.519531 -125.992188 134.09375 -122.140625 C 142.664062 -109.191406 153.09375 -99.222656 165.375 -92.234375 C 175 -86.316406 185.003906 -83.003906 195.390625 -82.296875 L 195.625 -25.84375 C 184.070312 -17.539062 171.769531 -11.335938 158.71875 -7.234375 C 145.664062 -3.140625 126.96875 -0.523438 102.625 0.609375 C 78.28125 1.742188 56.347656 -2.015625 36.828125 -10.671875 C 12.847656 -21.304688 0.375 -37.054688 -0.59375 -57.921875 C -1.8125 -83.941406 0.359375 -148.457031 5.921875 -251.46875 C 8.984375 -305.1875 11.707031 -342.75 14.09375 -364.15625 C 33.71875 -383.40625 63.492188 -393.960938 103.421875 -395.828125 C 132.429688 -397.171875 156.726562 -392.925781 176.3125 -383.09375 L 195.25 -329.015625 L 186.859375 -284.703125 C 186.203125 -281.679688 185.941406 -278.78125 186.078125 -276 C 186.398438 -269.050781 190.539062 -265.660156 198.5 -265.828125 L 221.328125 -384.890625 C 229.265625 -389.628906 239.71875 -393.945312 252.6875 -397.84375 C 265.65625 -401.738281 279.882812 -404.046875 295.375 -404.765625 C 324.382812 -406.117188 346.125 -402.203125 360.59375 -393.015625 C 375.0625 -383.828125 384.128906 -367.671875 387.796875 -344.546875 C 388.585938 -340.203125 389.816406 -332.992188 391.484375 -322.921875 C 416.804688 -168.367188 430.113281 -77.285156 431.40625 -49.671875 C 410.425781 -25.390625 379.171875 -12.28125 337.640625 -10.34375 Z M 337.640625 -10.34375 "/></g></g></g><g fill="#ffa5f0" fill-opacity="1"><g transform="translate(1257.661527, 457.392767)"><g><path d="M 289.828125 -374.734375 C 313.660156 -373.410156 333.953125 -365.804688 350.703125 -351.921875 C 367.460938 -338.035156 375.179688 -319.179688 373.859375 -295.359375 L 364.625 -129.703125 C 361.8125 -79.265625 344.253906 -41.242188 311.953125 -15.640625 C 279.648438 9.953125 236.335938 21.234375 182.015625 18.203125 C 127.703125 15.179688 86.195312 -0.570312 57.5 -29.0625 C 28.207031 -57.59375 14.992188 -97.578125 17.859375 -149.015625 L 29.6875 -361.4375 C 54.164062 -378.800781 81.796875 -386.625 112.578125 -384.90625 C 138.398438 -383.46875 158.476562 -375.523438 172.8125 -361.078125 C 187.15625 -346.640625 193.554688 -325.613281 192.015625 -298 L 182.34375 -124.328125 C 184.4375 -122.617188 186.921875 -121.679688 189.796875 -121.515625 C 192.671875 -121.359375 194.796875 -121.984375 196.171875 -123.390625 C 197.554688 -124.804688 198.367188 -127.601562 198.609375 -131.78125 L 207.828125 -297.40625 C 208.523438 -309.925781 208.476562 -319.894531 207.6875 -327.3125 C 206.90625 -334.726562 204.9375 -342.207031 201.78125 -349.75 C 226.707031 -368.289062 256.054688 -376.617188 289.828125 -374.734375 Z M 289.828125 -374.734375 "/></g></g></g><g fill="#ffa5f0" fill-opacity="1"><g transform="translate(1610.673067, 476.224188)"><g><path d="M 206.125 -183.34375 C 206.820312 -182.632812 209.039062 -181.992188 212.78125 -181.421875 C 216.519531 -180.859375 219.59375 -181.90625 222 -184.5625 C 224.40625 -187.21875 226.117188 -191.890625 227.140625 -198.578125 L 228.75 -209.203125 C 229.820312 -216.273438 229.75 -221.457031 228.53125 -224.75 C 227.320312 -228.050781 224.796875 -229.992188 220.953125 -230.578125 C 217.117188 -231.160156 214.460938 -231.164062 212.984375 -230.59375 C 213.023438 -229.570312 212.867188 -227.882812 212.515625 -225.53125 Z M 348.140625 -93.015625 L 391.28125 -33.078125 C 383.09375 -2.929688 369.832031 19.195312 351.5 33.3125 C 333.164062 47.4375 310.03125 52.382812 282.09375 48.15625 C 261.050781 44.96875 243.519531 37.179688 229.5 24.796875 C 211.550781 9.210938 199.75 -13.09375 194.09375 -42.125 L 187.84375 -72.640625 C 179.613281 -74.085938 169.351562 -76.742188 157.0625 -80.609375 C 155.25 -79.285156 154.132812 -77.242188 153.71875 -74.484375 C 152.90625 -69.179688 160.394531 -64.832031 176.1875 -61.4375 L 186.5625 -16.40625 L 182.765625 8.671875 C 157.734375 21.179688 127.515625 24.753906 92.109375 19.390625 C 66.742188 15.546875 47.28125 7.265625 33.71875 -5.453125 C 20.15625 -18.171875 14.875 -34.460938 17.875 -54.328125 L 60.328125 -334.59375 C 61.640625 -343.25 70.878906 -350.445312 88.046875 -356.1875 C 105.210938 -361.9375 127.054688 -365.367188 153.578125 -366.484375 C 180.109375 -367.597656 206.25 -366.203125 232 -362.296875 C 291.007812 -353.367188 335.300781 -334.289062 364.875 -305.0625 C 396.039062 -274.375 408.140625 -236.023438 401.171875 -190.015625 C 397.179688 -163.660156 386.335938 -142.21875 368.640625 -125.6875 C 350.941406 -109.15625 330.234375 -98.960938 306.515625 -95.109375 C 305.566406 -88.816406 308.878906 -85.097656 316.453125 -83.953125 C 324.035156 -82.804688 334.597656 -85.828125 348.140625 -93.015625 Z M 348.140625 -93.015625 "/></g></g></g><g fill="#ffa5f0" fill-opacity="1"><g transform="translate(1970.087486, 531.106724)"><g><path d="M 231.375 -339.546875 L 398.578125 -298.53125 C 401.910156 -287.882812 403.585938 -276.773438 403.609375 -265.203125 C 403.640625 -253.628906 402.585938 -243.492188 400.453125 -234.796875 C 395.660156 -215.285156 388.242188 -201.535156 378.203125 -193.546875 C 368.160156 -185.566406 356.28125 -183.257812 342.5625 -186.625 L 225.765625 -215.28125 C 218.628906 -217.03125 214.375 -215.101562 213 -209.5 L 212.4375 -207.1875 C 212.15625 -206.03125 212.15625 -205.207031 212.4375 -204.71875 L 350.953125 -170.734375 C 352.960938 -163.890625 354.113281 -155.625 354.40625 -145.9375 C 354.300781 -135.507812 353.300781 -126.429688 351.40625 -118.703125 C 345.757812 -95.722656 337.097656 -78.796875 325.421875 -67.921875 L 262.53125 -83.359375 C 233.164062 -90.554688 213 -94.328125 202.03125 -94.671875 C 191.0625 -95.015625 184.128906 -94.71875 181.234375 -93.78125 C 178.285156 -92.65625 176.476562 -90.742188 175.8125 -88.046875 C 175.15625 -85.347656 175.992188 -82.890625 178.328125 -80.671875 C 189.179688 -81.503906 200.273438 -81.238281 211.609375 -79.875 C 226.429688 -77.675781 242.34375 -74.492188 259.34375 -70.328125 L 340.78125 -50.34375 C 348.476562 -30.84375 349.460938 -9.40625 343.734375 13.96875 C 340.503906 27.113281 335.773438 39.265625 329.546875 50.421875 C 323.328125 61.585938 316.035156 70.039062 307.671875 75.78125 L 90.625 22.53125 C 66.664062 16.65625 48.867188 6.144531 37.234375 -9 C 24.421875 -25.238281 20.953125 -45.335938 26.828125 -69.296875 L 94.421875 -344.875 C 96.703125 -354.15625 108.988281 -358.3125 131.28125 -357.34375 C 153.570312 -356.382812 186.9375 -350.453125 231.375 -339.546875 Z M 231.375 -339.546875 "/></g></g></g><g clip-path="url(#c1192e1137)"><path stroke-linecap="butt" transform="matrix(1.43087, -0.325239, 0.325239, 1.43087, -0.0675632, 544.460835)" fill="none" stroke-linejoin="miter" d="M 296.530338 226.076651 L 296.531376 226.936831 C 296.532247 255.361604 292.485101 278.667543 284.39572 296.853232 C 276.303154 315.040928 265.601125 329.35951 252.283264 339.812991 C 238.965168 350.195439 224.357352 357.748577 208.46182 362.475593 C 192.640273 367.129336 176.81606 370.065314 160.992366 371.281521 C 145.168437 372.426695 130.812377 372.999165 117.924185 372.998929 L 67.340151 372.999781 C 53.520746 373.000817 42.70956 370.600747 34.905413 365.804761 C 27.172656 360.934913 21.550736 354.849543 18.04284 347.546645 C 14.53471 340.172715 12.31509 332.474688 11.383389 324.455162 C 10.525083 316.36496 10.094363 309.240082 10.09642 303.08171 L 10.094423 143.808636 C 10.096481 137.650264 10.525702 130.633493 11.384682 122.758914 C 12.315052 114.810471 14.534267 107.185016 18.042328 99.882547 C 21.550745 92.506449 27.170875 86.421152 34.905905 81.624649 C 42.709137 76.75629 53.521754 74.321887 67.338563 74.320261 L 105.143549 74.319411 C 115.383353 74.32099 127.161091 74.606625 140.478767 75.1795 C 153.867477 75.752142 167.650495 77.364444 181.828413 80.013812 C 196.077364 82.662945 210.001308 87.138271 223.606026 93.438375 C 237.281776 99.738244 249.52489 108.401505 260.337963 119.428748 C 271.219239 130.384135 279.9567 144.597764 286.542558 162.067866 C 293.202046 179.538324 296.531502 200.87372 296.530338 226.076651 Z M 132.422983 201.911458 L 132.424871 240.576624 C 132.423272 242.937696 133.068623 245.803447 134.356914 249.167508 C 135.718242 252.53452 139.61945 254.215696 146.065139 254.214811 C 151.934189 254.216624 155.442804 252.532584 156.589803 249.167882 C 157.80524 245.802357 158.41535 242.938056 158.414353 240.576394 L 158.415061 201.911818 C 158.414064 199.550157 157.735792 196.685112 156.373873 193.320696 C 155.086173 189.954039 151.217886 188.272157 144.775383 188.271036 C 139.189874 188.270882 135.716776 189.954805 134.356678 193.320209 C 133.067613 196.685378 132.424582 199.550387 132.422983 201.911458 Z M 45.321779 312.74832 C 43.533572 312.748625 42.350176 313.787299 41.777373 315.862925 C 43.854881 325.243078 47.75842 332.294658 53.484802 337.019672 C 59.213546 341.674243 65.9447 344.681165 73.675076 346.042445 C 81.482033 347.331042 89.465055 347.977164 97.625323 347.975618 C 101.135898 347.976422 104.714675 347.90537 108.367436 347.761045 C 112.090997 347.545453 115.563108 347.439235 118.784359 347.439796 C 121.14602 347.438799 122.471243 346.508802 122.758021 344.64662 C 123.044565 342.713405 122.005657 341.458976 119.643304 340.886519 C 116.421462 340.888555 112.984751 340.959139 109.332579 341.100868 C 105.682413 341.245783 101.778797 341.316709 97.626332 341.317421 C 90.610376 341.316992 83.55821 340.743227 76.469246 339.598721 C 69.451671 338.380352 63.436495 335.87469 58.426904 332.079729 C 53.48516 328.28654 50.154449 322.558167 48.436777 314.897795 C 48.079882 313.465331 47.04155 312.748839 45.321779 312.74832 Z M 39.629643 126.623775 C 40.203157 128.700614 41.348502 129.738997 43.068273 129.739516 C 44.85648 129.739212 45.895561 128.987143 46.182919 127.48272 C 47.973113 119.606868 51.335998 113.84387 56.277357 110.19231 C 61.289514 106.469483 67.303174 104.033533 74.319752 102.89024 C 81.407953 101.744118 88.46133 101.171566 95.477877 101.169399 C 99.558719 101.171517 103.427287 101.242774 107.077798 101.384585 C 110.801349 101.529349 114.274045 101.600713 117.495296 101.601274 C 119.787829 101.027647 120.787749 99.77528 120.504025 97.840751 C 120.217115 95.908229 118.891827 94.940873 116.530166 94.94187 C 113.306318 94.940719 109.869139 94.869238 106.218627 94.727426 C 102.566109 94.582429 98.986864 94.511416 95.478886 94.511201 C 87.244989 94.512391 79.225234 95.192881 71.41962 96.552672 C 63.687401 97.841787 56.956674 100.778132 51.230626 105.359704 C 45.501748 109.869653 41.635226 116.959604 39.629643 126.623775 Z M 140.371554 262.592976 L 136.828059 262.592879 C 134.463802 262.593286 131.957133 262.307434 129.308643 261.732728 C 126.659563 261.160618 125.048749 259.407646 124.476792 256.471218 C 124.190351 254.68076 123.009367 253.787155 120.931837 253.787216 C 118.928526 253.785037 118.067719 255.109974 118.355199 257.760612 C 119.499357 263.344146 122.400634 266.638044 127.053841 267.641126 C 131.780675 268.644563 136.504456 269.14499 141.230374 269.143586 C 143.593349 268.572321 144.596572 267.353465 144.238864 265.492209 C 143.951954 263.559686 142.662182 262.592213 140.371554 262.592976 Z M 166.255133 196.112718 C 166.828648 198.189557 168.009509 199.227823 169.800312 199.228108 C 171.875247 199.227457 172.913513 198.046596 172.913106 195.682339 C 172.626248 191.88798 171.588588 188.165931 169.798121 184.513006 C 168.01025 180.860671 165.074372 178.571732 160.992257 177.638401 C 158.917323 177.639052 157.733459 178.53566 157.447037 180.324214 C 157.162621 182.115954 157.912562 183.29651 159.704648 183.867653 C 162.926591 184.441667 164.823776 186.267921 165.396201 189.346415 C 165.968626 192.424909 166.255999 194.679675 166.255133 196.112718 Z M 132.854482 339.59791 C 131.707575 339.599294 130.813161 340.171307 130.168053 341.315955 C 129.595984 342.463554 129.917601 343.78699 131.134909 345.289448 C 131.708465 345.864806 131.995538 346.151186 131.995538 346.151186 C 132.280015 346.436977 132.853937 346.57835 133.713527 346.579908 C 135.217604 346.580539 136.325472 345.934195 137.041145 344.647248 C 137.757173 343.286672 137.400864 342.031791 135.968442 340.887204 C 135.968442 340.887204 135.645852 340.60094 135.000674 340.028413 C 134.42947 339.742968 133.711477 339.598877 132.854482 339.59791 Z M 128.881067 97.197793 C 127.733538 98.342899 127.448547 99.596701 128.021491 100.955424 C 128.593611 102.245711 129.487639 102.888452 130.704988 102.889429 C 131.565169 102.888391 132.28022 102.745165 132.852737 102.460342 C 133.425499 101.886196 133.711879 101.599123 133.711879 101.599123 C 135.216587 100.095678 135.574973 98.771199 134.787037 97.625686 C 134.070133 96.479939 132.996163 95.908226 131.565715 95.90795 C 130.634501 95.909223 130.026 96.052097 129.739619 96.33917 C 129.739619 96.33917 129.453828 96.623647 128.881067 97.197793 Z M 128.881067 97.197793 " stroke="#d269e6" stroke-width="74.236328" stroke-opacity="1" stroke-miterlimit="4"/></g><g clip-path="url(#859f26c99d)"><path stroke-linecap="butt" transform="matrix(1.4575, -0.169889, 0.169889, 1.4575, 464.249625, 440.614795)" fill="none" stroke-linejoin="miter" d="M 152.615468 378.261836 C 144.738517 378.26296 134.859371 377.368718 122.972741 375.578496 C 111.088675 373.858255 98.593134 370.279111 85.489072 364.838728 C 72.460279 359.396399 60.286229 351.196711 48.974546 340.243234 C 37.732926 329.21752 28.498194 314.609267 21.264444 296.423147 C 14.105656 278.237724 10.524411 255.503077 10.525379 228.22511 C 10.524147 197.149183 16.182678 169.619437 27.493038 145.634948 C 38.806739 121.575807 55.309884 102.637528 77.005117 88.820421 C 98.700658 75.000669 125.229705 68.090802 156.589614 68.090511 L 157.01823 68.092229 C 188.092521 68.44994 214.405138 75.53714 235.958419 89.356781 C 257.581761 103.104185 273.940969 122.005571 285.038377 146.063893 C 296.208492 170.050286 301.793467 197.43798 301.793611 228.22433 C 301.794979 255.505249 298.177805 278.237028 290.947069 296.422925 C 283.786006 314.608904 274.54958 329.216247 263.2381 340.242311 C 251.996374 351.198782 239.824637 359.396229 226.719937 364.836987 C 213.690199 370.278442 201.231095 373.859418 189.345578 375.577579 C 177.459671 377.368057 167.578551 378.261214 159.704244 378.262645 Z M 142.519294 246.698038 C 142.520111 249.059304 143.164389 251.924388 144.452435 255.290648 C 145.813108 258.654652 149.714894 260.336938 156.160437 260.337814 C 162.029778 260.338529 165.538692 258.654375 166.68392 255.290331 C 167.901773 251.924033 168.511613 249.060405 168.511104 246.696496 L 168.50947 204.05856 C 168.511297 201.697603 167.829384 198.833492 166.46902 195.466843 C 165.180665 192.103228 161.31387 190.41966 154.870971 190.419092 C 149.285611 190.419318 145.814332 192.102499 144.451844 195.468019 C 143.164317 198.834236 142.519795 201.696502 142.520304 204.060411 Z M 205.026541 114.380156 C 207.390384 113.736415 208.390901 112.62555 208.033074 111.050823 C 207.747953 109.404167 206.459522 108.294508 204.167783 107.721848 C 196.79221 103.927425 188.915106 101.170706 180.539114 99.451997 C 172.232878 97.663695 163.677831 96.768348 154.871022 96.768289 C 136.970779 96.766924 119.499794 100.417651 102.460403 107.723423 C 101.313499 108.940509 100.955743 110.193298 101.384493 111.481481 C 101.815886 112.769972 102.780801 113.413104 104.284218 113.414139 L 105.144402 113.415239 C 118.31801 106.969435 133.426012 103.748141 150.46607 103.748406 C 169.800365 103.74808 187.984339 107.293451 205.026541 114.380156 Z M 105.144533 328.536334 C 102.780771 329.110402 101.815244 330.219985 102.245308 331.864774 C 102.675064 333.512208 103.928503 334.623148 106.00329 335.194642 C 113.378864 338.989064 121.219615 341.781748 129.525543 343.572693 C 137.901534 345.291402 146.492934 346.150786 155.299743 346.150845 C 173.200294 346.149566 190.633953 342.497168 207.603362 335.193959 C 208.822584 333.977262 209.180339 332.724474 208.679273 331.435901 C 208.248268 330.075093 207.317063 329.395688 205.885963 329.395043 L 205.025471 329.396586 C 191.779464 335.911675 176.672744 339.167959 159.705003 339.168084 C 140.370708 339.168409 122.186426 335.625682 105.144533 328.536334 Z M 134.142085 263.453132 C 132.137426 263.452634 131.278348 264.775632 131.564543 267.424771 C 132.710424 272.07967 135.18019 275.51667 138.976486 277.736081 C 142.842455 279.955573 146.958402 281.065159 151.326969 281.065148 C 155.692893 281.064828 159.95522 279.883909 164.106019 277.521465 C 165.538072 276.088367 165.897189 274.800896 165.181037 273.656099 C 164.465273 272.438985 163.354361 271.829757 161.850944 271.828723 C 160.993095 271.830574 160.419066 271.972712 160.133837 272.258397 C 157.198367 273.690461 153.976595 274.405727 150.468212 274.40684 C 147.530743 274.407496 144.810469 273.763443 142.304744 272.474373 C 139.799019 271.185304 138.260217 269.073584 137.686001 266.136263 C 137.40135 264.347617 136.219369 263.451374 134.142085 263.453132 Z M 187.413223 193.105394 C 186.840834 187.807116 184.836131 183.116435 181.398806 179.035993 C 178.034187 174.883624 173.595437 172.519645 168.082248 171.9467 C 165.718338 171.947209 164.536329 172.913634 164.536221 174.845975 C 164.536193 176.708643 165.574854 177.960714 167.651588 178.607478 C 172.592467 178.893944 175.991715 181.254682 177.854005 185.695595 C 179.786665 190.061627 180.755089 192.675043 180.753988 193.535228 C 181.398978 195.612445 182.580489 196.650679 184.298522 196.649928 C 186.375806 196.648171 187.413731 195.469304 187.413223 193.105394 Z M 95.478933 321.556351 C 93.115331 321.554215 91.934296 322.558275 91.933798 324.562934 C 91.934615 326.924199 93.115348 328.107067 95.479258 328.106558 C 97.553589 328.107137 98.591823 326.925626 98.593958 324.562024 C 98.594456 322.557366 97.556217 321.554593 95.478933 321.556351 Z M 214.691816 114.809931 C 212.617176 114.811997 211.577969 115.955873 211.578867 118.247465 C 211.57798 120.324441 212.614857 121.361896 214.691832 121.362783 C 217.055742 121.362274 218.235496 120.323223 218.236383 118.246248 C 218.235176 115.9573 217.055725 114.809422 214.691816 114.809931 Z M 214.691816 114.809931 " stroke="#d269e6" stroke-width="74.236328" stroke-opacity="1" stroke-miterlimit="4"/></g><g clip-path="url(#74787cb96f)"><path stroke-linecap="butt" transform="matrix(1.46735, -0.00731849, 0.00731849, 1.46735, 960.925948, 384.950282)" fill="none" stroke-linejoin="miter" d="M 153.581127 378.691963 C 127.162323 378.693303 105.214907 375.6848 87.746836 369.671816 C 70.276117 363.656157 56.349616 355.315517 45.967347 344.647233 C 35.585436 333.907074 27.746077 321.518438 22.446582 307.486637 C 17.147459 293.380298 13.676869 278.274139 12.029515 262.162809 C 10.454022 246.054499 9.666183 229.478924 9.665998 212.436084 C 9.667226 212.723598 9.738085 211.326343 9.881212 208.249656 C 10.024352 205.170306 10.09626 198.225215 10.094289 187.411708 C 10.095325 176.529 10.095465 159.954693 10.094722 137.686125 C 10.094908 131.243815 10.668542 124.048326 11.812963 116.099644 C 13.031921 108.151334 15.822568 100.527654 20.190255 93.223306 C 24.629817 85.919317 31.682458 79.906175 41.348193 75.181217 C 51.013941 70.453597 64.368222 68.092356 81.4084 68.092157 C 98.091851 68.092842 111.193629 70.45559 120.716397 75.180415 C 130.239164 79.905241 137.186565 85.918995 141.553262 93.224312 C 145.991848 100.527325 148.783643 108.152227 149.93131 116.09903 C 151.148189 124.046178 151.75653 131.242239 151.75633 137.68721 L 151.757177 250.672561 C 151.756241 252.461495 152.473188 253.894625 153.905382 254.966613 C 155.407134 255.969733 156.733025 256.471498 157.877731 256.471884 L 159.275345 256.470868 C 160.419181 256.111864 161.564611 255.433414 162.711661 254.430194 C 163.927923 253.42732 164.535812 252.173835 164.537977 250.672415 L 164.53713 137.687064 C 164.537329 131.242093 165.108301 124.04659 166.255371 116.100584 C 167.471667 108.15226 170.264989 100.525931 174.632663 93.224246 C 179.072225 85.920257 186.052991 79.906756 195.574975 75.181081 C 205.09696 70.455406 218.201008 68.092917 234.884472 68.09094 C 251.924651 68.090741 265.276661 70.454737 274.943179 75.18028 C 284.609697 79.905822 291.626311 85.919921 295.993021 93.222576 C 300.434269 100.525602 303.226064 108.150504 304.371055 116.099956 C 305.587935 124.047105 306.196276 131.243165 306.196076 137.688136 L 306.62722 212.43706 C 306.627418 229.477239 305.802018 246.052754 304.156342 262.163632 C 302.582555 278.272208 299.144951 293.381181 293.846219 307.485243 C 288.547832 321.520091 280.707358 333.907724 270.324809 344.645479 C 259.942605 355.314021 246.018082 363.656845 228.545929 369.671262 C 211.076438 375.685692 189.168241 378.691094 162.818651 378.69278 Z M 90.644875 332.50988 C 89.14078 332.510364 88.174424 333.045953 87.745782 334.121971 C 87.314849 335.123437 87.529731 336.341094 88.390441 337.772279 C 93.975645 340.422316 102.995339 342.99897 115.454834 345.504931 C 127.914329 348.010892 141.767029 349.264623 157.018273 349.263488 C 171.124798 349.26463 185.337147 347.796814 199.65532 344.860041 C 214.048018 341.926301 226.827915 336.76964 237.997645 329.395396 C 239.429023 327.962333 239.858714 326.676014 239.286759 325.528453 C 238.71515 324.311679 237.71191 323.702376 236.27969 323.703219 C 235.347948 323.703896 234.596521 323.846565 234.025396 324.133886 C 224.931629 330.003743 212.831663 334.407755 197.722848 337.343247 C 182.616696 340.278753 167.150497 341.745639 151.3269 341.746582 C 140.444192 341.745546 129.881839 341.03 119.642517 339.597294 C 109.40354 338.095376 100.453942 335.875794 92.793724 332.938549 C 92.220129 332.653504 91.504729 332.511506 90.644875 332.50988 Z M 270.969401 103.317616 L 273.654051 97.197501 C 262.486598 93.973889 252.354647 92.363358 243.260873 92.363258 C 235.958697 92.364108 228.762444 93.544801 221.672102 95.908001 C 214.656656 98.199696 207.784025 102.281043 201.051546 108.152029 C 199.834221 109.367866 199.513833 110.622785 200.085084 111.911434 C 200.730872 113.200455 201.624795 113.843821 202.772163 113.844219 C 203.701243 113.843528 204.452671 113.70086 205.026458 113.413552 C 211.183371 108.186589 217.484519 104.464439 223.929915 102.244439 C 230.37265 100.024426 236.958922 98.915229 243.691408 98.914201 C 252.782519 98.914287 261.876949 100.383876 270.969401 103.317616 Z M 33.831001 108.151248 C 32.685538 109.370106 32.399769 110.622536 32.97102 111.911185 C 33.544933 113.199847 34.438856 113.843212 35.6581 113.843969 C 36.515305 113.84292 37.232125 113.700079 37.805899 113.415433 C 43.962812 108.18847 50.263974 104.463658 56.706708 102.243645 C 63.152091 100.026307 69.772983 98.914621 76.577331 98.916613 C 85.668442 98.9167 94.762886 100.383626 103.855325 103.320029 L 106.433506 97.19672 C 95.335252 93.976116 85.240583 92.363109 76.14681 92.363009 C 68.772758 92.3635 61.576506 93.544193 54.558039 95.907751 C 47.542593 98.199447 40.632693 102.280608 33.831001 108.151248 Z M 141.660151 256.470861 C 139.583703 256.471153 138.688127 257.760472 138.976099 260.336171 C 139.62062 262.41317 140.156354 264.41775 140.585953 266.352586 C 141.015923 268.212885 141.80278 270.040356 142.949212 271.829688 C 147.101618 276.197627 152.257894 278.379655 158.415351 278.381082 C 163.356227 278.381766 168.0084 277.020671 172.377182 274.300486 C 176.815549 271.506108 179.608214 267.747824 180.755191 263.022972 C 180.755091 260.374171 179.752762 259.048764 177.745526 259.049401 C 175.67174 259.049707 174.489911 260.08736 174.202702 262.162375 C 173.630243 265.385999 171.802898 267.748826 168.725991 269.250884 C 165.646768 270.683715 162.496579 271.400084 159.272762 271.399978 C 152.830453 271.399792 148.8572 270.07554 147.353005 267.427223 C 147.06502 265.921693 146.77951 264.453446 146.493815 263.022467 C 146.20812 261.591488 145.778143 260.266274 145.203872 259.049487 C 144.916948 257.330994 143.7366 256.470569 141.660151 256.470861 Z M 77.86474 328.106896 C 76.074179 328.965814 75.394056 330.290815 75.824372 332.081901 C 76.326575 333.870682 77.578626 334.766072 79.5832 334.765422 L 81.409403 334.766544 C 82.842174 334.121473 83.699233 333.082199 83.985891 331.651413 L 83.986482 329.931692 C 83.701338 327.856485 82.553824 326.817862 80.54925 326.818512 C 79.332669 326.817769 78.43872 327.247234 77.86474 328.106896 Z M 176.888102 248.953059 C 174.811268 250.098057 174.416701 251.280729 175.707076 252.498426 C 177.067037 253.64193 178.320694 254.215213 179.4654 254.215598 C 182.114202 254.215498 182.542851 252.604397 180.75401 249.382306 C 180.467929 249.096033 180.109974 248.809402 179.680143 248.522412 C 179.250299 248.238084 178.750538 248.0945 178.175523 248.094294 C 177.890684 248.092873 177.460648 248.380899 176.888102 248.953059 Z M 112.125324 107.293215 C 112.482344 109.36878 113.664464 110.407576 115.669038 110.406925 C 117.460634 110.407875 118.497996 109.513255 118.783784 107.723079 C 118.783684 105.074277 117.746748 103.748698 115.670299 103.74899 C 113.665726 103.749641 112.483897 104.787294 112.124813 106.86195 Z M 279.34802 106.862744 L 279.345883 107.291333 C 279.633676 109.369216 280.815796 110.408011 282.892245 110.407719 C 284.609304 110.408297 285.612059 109.513504 285.897847 107.723328 C 285.897761 105.071865 284.895418 103.74912 282.890844 103.749771 C 280.814409 103.747401 279.632567 104.787716 279.34802 106.862744 Z M 279.34802 106.862744 " stroke="#d269e6" stroke-width="74.236328" stroke-opacity="1" stroke-miterlimit="4"/></g><g clip-path="url(#c990779e8b)"><path stroke-linecap="butt" transform="matrix(1.458903, 0.157389, -0.157389, 1.458903, 1468.367114, 384.76631)" fill="none" stroke-linejoin="miter" d="M 313.178102 293.846077 L 313.177849 313.177835 C 313.176978 319.622732 312.676006 326.817737 311.67522 334.765496 C 310.672018 342.641223 308.021864 350.266222 303.727692 357.642853 C 299.503135 364.945036 292.771632 370.924545 283.535544 375.578447 C 274.298939 380.302021 261.626786 382.665151 245.516153 382.665477 C 228.476543 382.666953 213.939544 378.441063 201.911019 369.992527 C 189.882725 361.471673 182.687706 348.263169 180.325389 330.361723 L 170.658385 332.510431 C 171.230021 337.809167 172.162961 343.106411 173.449552 348.405665 C 174.811338 353.632546 176.814927 358.752703 179.465326 363.762919 C 163.642636 369.063133 148.535137 371.710412 134.143401 371.71005 C 110.442225 371.712609 89.249705 365.40939 70.561404 352.808903 C 51.945651 340.136329 37.195451 322.666302 26.313449 300.398537 C 15.501119 278.131289 10.094454 252.461435 10.096388 223.391337 C 10.095043 192.032309 16.10874 164.929595 28.138335 142.091136 C 40.167876 119.177711 57.386603 101.279077 79.79924 88.389367 C 102.281833 75.502821 129.202501 68.73491 160.561816 68.090929 L 166.254418 68.092633 C 194.751265 68.092149 218.595662 71.849449 237.782602 79.36775 C 256.972705 86.816094 271.471671 96.695666 281.280071 109.011758 C 291.160504 121.325435 296.102724 134.822492 296.101153 149.500853 C 296.10235 159.166589 294.096959 168.797112 290.087628 178.392135 C 286.148198 187.915357 280.419831 195.896536 272.903096 202.340965 C 265.456033 208.78591 256.469695 212.007169 245.947014 212.007101 C 236.851597 212.008354 228.833048 210.25211 221.889291 206.743948 C 215.015205 203.236303 208.141119 199.728657 201.267033 196.221012 C 194.393178 192.641048 186.410903 190.848761 177.318133 190.849728 C 169.654987 190.849085 163.389875 193.284108 158.522511 198.152152 C 153.725336 202.951042 150.288802 208.821416 148.210551 215.766209 C 146.20778 222.641276 145.348239 229.441204 145.635431 236.17365 C 147.065432 259.08358 158.628687 270.540975 180.324625 270.540541 C 181.827497 262.878661 184.693396 255.540981 188.916458 248.522777 C 193.212124 241.50745 199.907956 235.743314 209.001594 231.233301 C 218.09253 226.648608 230.553076 224.359179 246.374437 224.357931 C 262.19873 224.359043 274.657663 226.720649 283.751806 231.448043 C 292.843248 236.100757 299.501901 242.078901 303.727763 249.382477 C 308.023298 256.686568 310.671824 264.31025 311.673913 272.258816 C 312.676003 280.207382 313.178973 287.401181 313.178102 293.846077 Z M 62.507295 134.573243 C 60.142765 138.36802 57.709542 141.947973 55.204979 145.313388 C 52.697483 148.676442 51.015488 152.866153 50.155776 157.877513 C 50.72799 159.955125 51.910885 160.992235 53.699453 160.992064 C 55.41835 160.991376 56.421744 160.240522 56.706704 158.737141 C 57.351128 155.229678 58.531584 152.149019 60.251288 149.500171 C 62.040664 146.85184 63.938116 144.237368 65.94393 141.6594 C 78.616502 124.334215 93.581505 112.448782 110.836294 106.003387 C 128.163686 99.560869 147.1021 96.336976 167.652108 96.337001 C 174.953949 96.339137 182.616203 97.448372 190.633861 99.667924 C 198.726716 101.815103 205.634718 103.99907 211.363161 106.219253 C 217.091604 108.439436 219.95554 109.546881 219.95554 109.546881 C 220.527526 110.406243 221.101468 110.83699 221.674434 110.836761 C 222.890036 110.836819 224.143496 110.120571 225.432167 108.688302 C 226.793387 107.183947 227.47273 105.538951 227.472273 103.747736 C 218.379393 98.808682 208.175447 95.012305 196.863655 92.363615 C 185.551862 89.714925 173.879541 88.39034 161.851986 88.389292 C 142.806853 88.390247 124.260954 92.150141 106.219582 99.668401 C 88.175793 107.114628 73.604054 118.748788 62.507295 134.573243 Z M 288.582178 347.974941 C 289.15641 346.472483 289.157533 345.291574 288.5829 344.432497 C 288.011145 343.500818 287.114819 343.035234 285.899217 343.035177 C 284.753285 343.035635 283.749891 343.786489 282.891966 345.290099 C 280.529102 350.589465 275.516555 354.7074 267.854039 357.641256 C 260.266774 360.577704 252.210306 362.043936 243.690501 362.044674 C 237.818856 362.04622 232.306331 361.256639 227.150852 359.68151 C 222.067922 358.034293 218.201025 355.423179 215.552237 351.842588 C 214.693396 350.409052 214.191368 348.90757 214.048229 347.332562 C 213.905321 345.685236 213.510535 344.110601 212.866232 342.605725 C 212.579204 340.888266 211.434252 340.029133 209.42873 340.028613 C 207.353536 340.027575 206.457668 341.353207 206.746132 344.00229 C 207.318577 346.007583 207.819769 348.047338 208.247347 350.124488 C 208.749604 352.198936 209.431158 354.098745 210.288505 355.81626 C 213.224091 360.541344 217.628798 363.943214 223.499692 366.019508 C 229.370817 368.023484 235.813987 369.025936 242.831849 369.026578 C 252.211246 369.026819 261.447361 367.128088 270.54048 363.333029 C 279.6336 359.537971 285.646808 354.420468 288.582178 347.974941 Z M 70.776765 314.896013 C 68.771242 314.895492 67.912999 316.22242 68.198817 318.871788 C 70.275672 327.103358 74.750449 333.512561 81.622578 338.094106 C 88.497869 342.605693 96.264801 345.826912 104.928952 347.75984 C 113.59362 349.623096 121.57538 350.839772 128.879811 351.411941 C 131.244048 350.840936 132.351665 349.765568 132.208526 348.19056 C 132.065618 346.543234 131.099908 345.434498 129.308463 344.861989 C 123.15261 344.289075 116.098849 343.285557 108.152759 341.853509 C 100.276572 340.349659 93.114881 337.700396 86.670334 333.905434 C 80.228949 330.040516 76.110324 324.599639 74.319751 317.582234 C 74.035601 315.792172 72.851958 314.89705 70.776765 314.896013 Z M 132.423084 209.752758 C 132.997659 211.827436 134.178193 212.86748 135.969408 212.867022 C 137.685658 212.86662 138.690118 212.150459 138.974847 210.719397 C 139.620252 205.707058 141.230822 199.763241 143.809491 192.890306 C 146.458061 185.94557 151.00517 181.757359 157.447885 180.323312 C 159.238926 179.17957 159.988863 177.891102 159.702987 176.457337 C 159.417628 174.9539 158.091535 174.202668 155.730001 174.203069 C 148.427639 176.206455 142.912258 180.825782 139.191512 188.057548 C 135.538022 195.217798 133.284526 202.449249 132.423084 209.752758 Z M 202.341085 263.881332 C 201.480971 266.531159 202.520668 267.854148 205.455453 267.856165 C 207.17435 267.855477 208.213503 267.138251 208.57055 265.707419 C 210.003686 261.84176 213.332259 258.296414 218.559199 255.073742 C 223.856096 251.854232 228.726593 250.24172 233.165968 250.242071 C 234.884864 250.241383 236.065027 250.384495 236.709102 250.671123 L 237.568693 250.672102 C 239.643601 250.670492 240.683501 249.811277 240.683099 248.095027 C 240.682641 246.303812 239.78948 245.122988 237.998036 244.550479 C 236.851875 243.977972 234.954573 243.689992 232.306413 243.689184 C 226.434768 243.69073 220.419865 245.839041 214.261705 250.134116 C 208.104061 254.35952 204.13219 258.940853 202.341085 263.881332 Z M 252.066715 255.504641 L 253.357283 255.504644 C 255.718587 254.931277 256.75728 253.713404 256.470999 251.853955 C 256.184663 249.919542 254.859548 248.954002 252.497728 248.951757 C 250.133548 248.952443 248.952779 249.920569 248.952489 251.853773 C 248.95243 253.71466 249.991292 254.930638 252.066715 255.504641 Z M 236.71044 116.958056 C 236.996029 119.034459 238.141584 120.07292 240.147106 120.073441 C 241.362709 120.073499 242.116212 119.78604 242.402609 119.214283 C 244.479013 118.283411 245.337541 116.95913 244.978195 115.241441 C 244.694045 113.451378 243.403106 112.554444 241.11389 112.555076 L 240.682914 112.556053 C 238.607721 112.555016 237.426435 113.592813 237.139058 115.669445 C 237.139287 116.24241 236.995628 116.672925 236.71044 116.958056 Z M 60.252378 297.283369 C 57.315232 297.284285 56.600448 299.072336 58.103305 302.653385 L 58.962608 303.942285 C 59.820934 304.800209 60.681216 305.229518 61.540808 305.230497 C 62.75641 305.230555 63.653343 304.5849 64.22395 303.297036 C 64.797435 301.936567 64.654152 300.682878 63.794388 299.538614 C 63.795597 299.251989 63.50828 298.82245 62.935085 298.249714 C 61.719484 297.604373 60.825344 297.28314 60.252378 297.283369 Z M 60.252378 297.283369 " stroke="#d269e6" stroke-width="74.236328" stroke-opacity="1" stroke-miterlimit="4"/></g><g clip-path="url(#61e1a27db7)"><path stroke-linecap="butt" transform="matrix(1.432027, 0.320108, -0.320108, 1.432027, 1977.074793, 442.261792)" fill="none" stroke-linejoin="miter" d="M 306.196514 308.775983 C 306.196485 315.218999 305.587283 322.414664 304.371505 330.362398 C 303.226667 338.23699 300.433373 345.863593 295.993639 353.239026 C 291.627443 360.540737 284.608687 366.55595 274.944584 371.280322 C 265.278372 375.934245 251.925176 378.261753 234.884996 378.262847 C 218.201991 378.263206 205.098513 375.935862 195.574561 371.280813 C 186.051679 366.557332 179.071587 360.542587 174.632269 353.239758 C 170.26389 345.863789 167.471161 338.239263 166.256098 330.363001 C 165.109377 322.414179 164.53733 315.21797 164.537359 308.774954 L 164.536972 268.283916 C 164.537422 266.565315 163.783546 265.206278 162.279961 264.203042 C 160.847896 263.129265 159.380409 262.592593 157.877501 262.593029 L 157.018492 262.594103 C 155.873982 262.879946 154.69185 263.558816 153.475274 264.632729 C 152.330218 265.6361 151.756563 266.852715 151.754889 268.285172 L 151.755276 308.77621 C 151.755247 315.219226 151.148643 322.41431 149.930268 330.362624 C 148.78543 338.237217 145.992135 345.863819 141.552402 353.239252 C 137.186206 360.540964 130.241079 366.556084 120.716441 371.282015 C 111.194889 375.936334 98.092321 378.262374 81.409316 378.262733 C 64.368556 378.261229 51.01445 375.935353 41.349016 371.281925 C 31.68349 366.554868 24.63035 360.542814 20.190451 353.237387 C 15.822652 345.864016 13.032521 338.238909 11.814861 330.363228 C 10.66814 322.414406 10.096093 315.218196 10.096122 308.77518 L 10.095291 137.686454 C 10.09532 131.243437 10.669006 124.047528 11.813752 116.099306 C 13.032128 108.150992 15.823405 100.527568 20.191618 93.222678 C 24.631444 85.920874 31.683118 79.906487 41.349238 75.178935 C 51.015939 70.453982 64.369379 68.090958 81.410139 68.092462 C 98.093144 68.092103 111.193781 70.455544 120.716663 75.179025 C 130.240126 79.905105 137.184702 85.919605 141.552989 93.221945 C 145.992888 100.527372 148.785617 108.151898 149.929159 116.098703 C 151.146912 124.048013 151.757073 131.243886 151.757044 137.686902 L 151.755478 166.686252 C 151.757138 168.475302 152.472655 169.870192 153.905209 170.872939 C 155.408794 171.876174 156.731864 172.376933 157.877598 172.377233 L 159.273958 172.376064 C 160.418468 172.090221 161.56484 171.446623 162.709896 170.443252 C 163.92907 169.368758 164.535887 168.117452 164.537561 166.684995 L 164.536529 137.686227 C 164.536558 131.243211 165.110244 124.047301 166.25499 116.099079 C 167.473365 108.150765 170.264642 100.527341 174.632856 93.222451 C 179.072681 85.920648 186.053324 79.905772 195.575364 75.180421 C 205.097404 70.455071 218.199636 68.090918 234.882641 68.090559 C 251.923402 68.092062 265.277263 70.453454 274.942789 75.180511 C 284.610332 79.904389 291.62594 85.919378 295.994807 93.224316 C 300.434125 100.527145 303.226855 108.151671 304.370397 116.098476 C 305.588149 124.047787 306.19831 131.243659 306.198281 137.686676 Z M 205.455016 351.843548 C 216.554 355.063595 226.649612 356.674863 235.743867 356.674176 C 243.403648 356.674993 250.741978 355.457427 257.759438 353.024076 C 264.847837 350.517584 271.613806 346.47105 278.057925 340.887073 C 279.489458 339.45687 279.920958 338.165648 279.345794 337.020346 C 278.773715 335.803431 277.734923 335.195481 276.232015 335.195917 C 275.372425 335.194393 274.657099 335.337927 274.085456 335.62392 C 267.926837 340.923128 261.625964 344.682936 255.182256 346.900745 C 248.737019 349.050701 242.114015 350.124733 235.313244 350.122842 C 226.218989 350.123529 217.126651 348.656244 208.033634 345.721567 Z M 51.444583 351.842948 C 62.614598 355.063483 72.745725 356.674996 81.837383 356.674889 C 89.42873 356.674637 96.731544 355.456826 103.749004 353.023475 C 110.837404 350.516983 117.603953 346.473048 124.047491 340.886472 C 125.550056 339.456758 125.978958 338.166117 125.33536 337.019745 C 124.763282 335.80283 123.760005 335.195125 122.328129 335.196049 C 121.397507 335.194037 120.646665 335.337326 120.072424 335.6239 C 113.916403 340.922528 107.61553 344.682335 101.169805 346.903323 C 94.726586 349.0501 88.139097 350.124377 81.409358 350.122974 C 72.315102 350.123662 63.222765 348.656376 54.129748 345.721699 Z M 38.235309 104.178423 C 37.088787 105.394888 36.801367 106.683908 37.375647 108.044903 C 37.947236 109.332849 38.844302 109.977935 40.061067 109.978723 C 40.920076 109.977649 41.635403 109.834116 42.207045 109.548123 C 48.365665 104.248914 54.667118 100.491704 61.110246 98.271298 C 67.553373 96.050891 74.176621 94.941343 80.97999 94.942653 C 90.071648 94.942546 99.166583 96.409251 108.2596 99.343929 L 110.83562 93.222528 C 99.739234 90.001901 89.643623 88.390632 80.549367 88.39132 C 73.175729 88.389278 65.979707 89.572306 58.962735 91.934625 C 51.946253 94.225914 45.035379 98.307567 38.235309 104.178423 Z M 264.848652 93.222547 C 253.678636 90.002013 243.547509 88.3905 234.453254 88.391187 C 227.150647 88.389635 219.954625 89.572662 212.866622 91.934493 C 205.850139 94.225781 198.977379 98.307098 192.245743 104.179023 C 191.099221 105.395488 190.814399 106.683928 191.38608 108.045503 C 191.960268 109.332869 192.81922 109.978291 193.964953 109.978591 C 194.894994 109.978006 195.645836 109.834716 196.220077 109.548143 C 202.376098 104.249515 208.676971 100.489707 215.123277 98.271317 C 221.566404 96.050911 228.154137 94.941118 234.883877 94.942521 C 243.978132 94.941833 253.070469 96.409119 262.163486 99.343796 Z M 142.089118 172.376762 C 140.657242 172.377686 139.476426 173.416328 138.54667 175.492688 C 139.763406 181.936493 142.126478 186.552852 145.633868 189.344945 C 149.141839 192.139635 153.223525 193.534936 157.876909 193.534026 C 164.966422 193.534113 171.875225 191.029578 178.605337 186.017243 C 180.038887 184.583862 180.394741 183.295911 179.680111 182.14905 C 178.963953 180.934337 177.85413 180.325899 176.350641 180.323736 C 175.491631 180.32481 174.917787 180.466723 174.632868 180.75409 C 172.270012 182.545231 169.619453 184.01334 166.683788 185.157835 C 163.748123 186.30233 160.992784 186.874599 158.415174 186.875224 C 155.48039 186.876583 152.759643 186.01722 150.252934 184.297135 C 147.747294 182.508616 146.063247 179.428966 145.204551 175.062798 C 144.918766 173.271793 143.881348 172.37712 142.089118 172.376762 Z M 174.201829 249.383116 C 172.126054 249.383402 170.945635 250.277383 170.658553 252.068239 C 170.37138 253.785465 171.124123 254.931989 172.913605 255.505794 C 175.564206 256.148976 177.172722 257.938905 177.746949 260.87384 C 178.319066 263.738323 178.535232 266.889685 178.39227 270.325908 C 178.247198 273.69168 178.177035 276.233286 178.176585 277.951886 C 178.749737 280.027811 179.930839 281.064943 181.720471 281.065882 C 183.725214 281.065107 184.726831 279.883762 184.727919 277.521263 C 184.727648 272.223981 184.513303 266.603573 184.082286 260.660622 C 183.654355 254.646058 180.359138 250.887277 174.201829 249.383116 Z M 184.728755 176.350549 C 183.010155 176.350099 182.508264 177.460655 183.2251 179.679039 C 183.939918 181.900602 184.908017 183.009898 186.124782 183.010687 C 186.697068 183.008239 187.412392 182.400983 188.27219 181.183144 C 189.130707 180.325659 188.986987 178.999352 187.842192 177.20942 C 186.983332 176.637628 185.94552 176.351337 184.728755 176.350549 Z M 42.208626 338.738335 C 40.77675 338.73926 39.774153 339.598947 39.200837 341.317397 C 39.200972 343.966038 40.203702 345.291271 42.208445 345.290497 C 44.28422 345.290211 45.465036 344.251569 45.751474 342.177168 L 45.753245 341.745784 C 45.466327 339.742265 44.284982 338.740648 42.208626 338.738335 Z M 116.529556 103.319111 C 116.887016 105.39415 118.068698 106.43388 120.073442 106.433106 C 121.863073 106.434045 122.90143 105.539086 123.188511 103.748231 C 123.188376 101.099589 122.15013 99.774112 120.074356 99.774398 C 118.069612 99.775172 116.885618 100.811797 116.528729 102.888307 Z M 270.539162 102.888907 L 270.53999 103.319711 C 270.826418 105.394262 272.008101 106.433992 274.083875 106.433707 C 275.802475 106.434157 276.805316 105.538954 277.092398 103.748098 C 277.092262 101.099457 276.089532 99.774224 274.084789 99.774998 C 272.009015 99.775284 270.827618 100.811328 270.539162 102.888907 Z M 196.21906 338.738936 C 194.716152 338.739372 193.67804 339.598814 193.104723 341.317265 C 193.104859 343.965906 194.143104 345.291383 196.218879 345.291097 C 198.223622 345.290323 199.404438 344.251681 199.764506 342.177188 L 199.763678 341.746384 C 199.40573 339.742377 198.224384 338.74076 196.21906 338.738936 Z M 196.21906 338.738936 " stroke="#d269e6" stroke-width="74.236328" stroke-opacity="1" stroke-miterlimit="4"/></g><g fill="#000000" fill-opacity="1"><g transform="translate(121.246621, 1078.175401)"><g><path d="M 376.46875 -306.671875 L 376.75 -305.40625 C 386 -264.695312 387.8125 -230.023438 382.1875 -201.390625 C 376.570312 -172.753906 365.90625 -148.816406 350.1875 -129.578125 C 334.476562 -110.347656 316.054688 -94.800781 294.921875 -82.9375 C 273.785156 -71.070312 252.078125 -61.722656 229.796875 -54.890625 C 207.523438 -48.054688 187.15625 -42.539062 168.6875 -38.34375 L 96.3125 -21.890625 C 76.582031 -17.410156 60.367188 -17.363281 47.671875 -21.75 C 34.984375 -26.144531 24.925781 -33.019531 17.5 -42.375 C 10.082031 -51.726562 4.429688 -62.03125 0.546875 -73.28125 C -3.335938 -84.53125 -6.28125 -94.566406 -8.28125 -103.390625 L -60.0625 -331.234375 C -62.070312 -340.054688 -63.734375 -350.273438 -65.046875 -361.890625 C -66.359375 -373.503906 -65.6875 -385.125 -63.03125 -396.75 C -60.382812 -408.382812 -54.285156 -418.929688 -44.734375 -428.390625 C -35.191406 -437.847656 -20.554688 -444.816406 -0.828125 -449.296875 L 53.296875 -461.59375 C 67.984375 -464.9375 84.96875 -468.351562 104.25 -471.84375 C 123.539062 -475.34375 143.789062 -477.515625 165 -478.359375 C 186.207031 -479.210938 207.59375 -477.347656 229.15625 -472.765625 C 250.71875 -468.179688 271.050781 -459.785156 290.15625 -447.578125 C 309.257812 -435.367188 326.367188 -417.847656 341.484375 -395.015625 C 356.597656 -372.191406 368.257812 -342.742188 376.46875 -306.671875 Z M 133.8125 -287.921875 L 146.40625 -232.53125 C 147.164062 -229.175781 149.035156 -225.296875 152.015625 -220.890625 C 155.003906 -216.492188 161.117188 -215.347656 170.359375 -217.453125 C 178.742188 -219.359375 183.226562 -222.914062 183.8125 -228.125 C 184.394531 -233.332031 184.304688 -237.613281 183.546875 -240.96875 L 170.953125 -296.359375 C 170.191406 -299.710938 168.316406 -303.585938 165.328125 -307.984375 C 162.335938 -312.378906 156.226562 -313.523438 147 -311.421875 C 139.019531 -309.609375 134.632812 -306.078125 133.84375 -300.828125 C 133.0625 -295.578125 133.050781 -291.273438 133.8125 -287.921875 Z M 45.234375 -100.96875 C 42.710938 -100.394531 41.367188 -98.546875 41.203125 -95.421875 C 47.191406 -82.660156 55.039062 -73.851562 64.75 -69 C 74.457031 -64.144531 85.085938 -62.035156 96.640625 -62.671875 C 108.191406 -63.304688 119.835938 -64.960938 131.578125 -67.640625 C 136.609375 -68.785156 141.722656 -70.054688 146.921875 -71.453125 C 152.128906 -72.847656 157.039062 -74.070312 161.65625 -75.125 C 165.007812 -75.882812 166.585938 -77.675781 166.390625 -80.5 C 166.191406 -83.332031 164.316406 -84.789062 160.765625 -84.875 C 156.160156 -83.820312 151.253906 -82.59375 146.046875 -81.1875 C 140.847656 -79.789062 135.3125 -78.425781 129.4375 -77.09375 C 119.363281 -74.800781 109.097656 -73.347656 98.640625 -72.734375 C 88.191406 -72.117188 78.78125 -73.726562 70.40625 -77.5625 C 62.03125 -81.394531 55.34375 -88.476562 50.34375 -98.8125 C 49.457031 -100.820312 47.753906 -101.539062 45.234375 -100.96875 Z M -23.484375 -365.359375 C -21.960938 -362.609375 -19.941406 -361.519531 -17.421875 -362.09375 C -14.898438 -362.664062 -13.671875 -364.050781 -13.734375 -366.25 C -13.785156 -378.15625 -10.84375 -387.539062 -4.90625 -394.40625 C 1.03125 -401.28125 8.84375 -406.695312 18.53125 -410.65625 C 28.21875 -414.625 38.097656 -417.753906 48.171875 -420.046875 C 54.046875 -421.378906 59.628906 -422.535156 64.921875 -423.515625 C 70.222656 -424.503906 75.179688 -425.523438 79.796875 -426.578125 C 82.953125 -428.179688 84.007812 -430.296875 82.96875 -432.921875 C 81.925781 -435.554688 79.734375 -436.488281 76.390625 -435.71875 C 71.773438 -434.675781 66.820312 -433.660156 61.53125 -432.671875 C 56.238281 -431.691406 51.070312 -430.628906 46.03125 -429.484375 C 34.28125 -426.816406 23.054688 -423.269531 12.359375 -418.84375 C 1.671875 -414.425781 -7.023438 -408.035156 -13.734375 -399.671875 C -20.441406 -391.316406 -23.691406 -379.878906 -23.484375 -365.359375 Z M 164.890625 -203.640625 L 159.84375 -202.5 C 156.488281 -201.726562 152.828125 -201.332031 148.859375 -201.3125 C 144.890625 -201.300781 142.015625 -203.296875 140.234375 -207.296875 C 139.234375 -209.710938 137.265625 -210.585938 134.328125 -209.921875 C 131.390625 -209.253906 130.554688 -207.082031 131.828125 -203.40625 C 135.316406 -195.8125 140.582031 -192.039062 147.625 -192.09375 C 154.675781 -192.15625 161.5625 -192.945312 168.28125 -194.46875 C 171.457031 -196.0625 172.523438 -198.175781 171.484375 -200.8125 C 170.441406 -203.457031 168.242188 -204.398438 164.890625 -203.640625 Z M 180.40625 -307.125 C 181.914062 -304.375 183.929688 -303.285156 186.453125 -303.859375 C 189.390625 -304.523438 190.476562 -306.535156 189.71875 -309.890625 C 188.0625 -315.242188 185.375 -320.257812 181.65625 -324.9375 C 177.945312 -329.613281 173.019531 -331.910156 166.875 -331.828125 C 163.925781 -331.160156 162.523438 -329.519531 162.671875 -326.90625 C 162.828125 -324.300781 164.265625 -322.867188 166.984375 -322.609375 C 171.773438 -322.804688 175.085938 -320.796875 176.921875 -316.578125 C 178.765625 -312.367188 179.925781 -309.21875 180.40625 -307.125 Z M 179.21875 -91.046875 C 177.539062 -90.671875 176.472656 -89.546875 176.015625 -87.671875 C 175.554688 -85.796875 176.40625 -84.003906 178.5625 -82.296875 C 179.59375 -81.640625 180.109375 -81.3125 180.109375 -81.3125 C 180.628906 -80.988281 181.515625 -80.972656 182.765625 -81.265625 C 184.867188 -81.734375 186.226562 -83.03125 186.84375 -85.15625 C 187.457031 -87.289062 186.53125 -88.957031 184.0625 -90.15625 C 184.0625 -90.15625 183.539062 -90.476562 182.5 -91.125 C 181.5625 -91.363281 180.46875 -91.335938 179.21875 -91.046875 Z M 94.734375 -436.578125 C 93.429688 -434.515625 93.414062 -432.632812 94.6875 -430.9375 C 95.957031 -429.25 97.429688 -428.59375 99.109375 -428.96875 C 100.367188 -429.257812 101.367188 -429.707031 102.109375 -430.3125 C 102.753906 -431.351562 103.078125 -431.875 103.078125 -431.875 C 104.703125 -434.4375 104.796875 -436.4375 103.359375 -437.875 C 101.929688 -439.320312 100.175781 -439.804688 98.09375 -439.328125 C 96.832031 -439.035156 96.035156 -438.632812 95.703125 -438.125 C 95.703125 -438.125 95.378906 -437.609375 94.734375 -436.578125 Z M 94.734375 -436.578125 "/></g></g></g><g fill="#000000" fill-opacity="1"><g transform="translate(527.618183, 984.262451)"><g><path d="M 223.390625 -18.234375 C 211.835938 -16.878906 197.257812 -16.476562 179.65625 -17.03125 C 162.050781 -17.582031 143.273438 -20.703125 123.328125 -26.390625 C 103.378906 -32.085938 84.242188 -41.988281 65.921875 -56.09375 C 47.597656 -70.207031 31.65625 -89.90625 18.09375 -115.1875 C 4.53125 -140.46875 -4.566406 -172.988281 -9.203125 -212.75 C -14.472656 -258.050781 -10.925781 -299.179688 1.4375 -336.140625 C 13.8125 -373.109375 34.644531 -403.484375 63.9375 -427.265625 C 93.226562 -451.046875 130.738281 -465.601562 176.46875 -470.9375 L 177.125 -471 C 222.46875 -475.863281 262.019531 -470.078125 295.78125 -453.640625 C 329.539062 -437.210938 356.582031 -412.421875 376.90625 -379.265625 C 397.238281 -346.109375 410.019531 -307.09375 415.25 -262.21875 C 419.882812 -222.457031 418.507812 -188.71875 411.125 -161 C 403.738281 -133.28125 392.75 -110.445312 378.15625 -92.5 C 363.570312 -74.550781 347.226562 -60.515625 329.125 -50.390625 C 311.03125 -40.265625 293.476562 -32.90625 276.46875 -28.3125 C 259.457031 -23.726562 245.179688 -20.765625 233.640625 -19.421875 Z M 186.28125 -208.234375 C 186.6875 -204.804688 188.132812 -200.75 190.625 -196.0625 C 193.125 -191.375 199.078125 -189.578125 208.484375 -190.671875 C 217.035156 -191.660156 221.878906 -194.710938 223.015625 -199.828125 C 224.160156 -204.941406 224.53125 -209.210938 224.125 -212.640625 L 216.875 -274.828125 C 216.476562 -278.253906 215.03125 -282.3125 212.53125 -287 C 210.03125 -291.695312 204.078125 -293.5 194.671875 -292.40625 C 186.546875 -291.457031 181.804688 -288.410156 180.453125 -283.265625 C 179.109375 -278.128906 178.632812 -273.847656 179.03125 -270.421875 Z M 254.84375 -411.84375 C 258.15625 -413.09375 259.460938 -414.863281 258.765625 -417.15625 C 258.078125 -419.457031 255.96875 -420.835938 252.4375 -421.296875 C 241.101562 -425.617188 229.195312 -428.347656 216.71875 -429.484375 C 204.238281 -430.628906 191.582031 -430.457031 178.75 -428.96875 C 152.675781 -425.925781 127.867188 -417.613281 104.328125 -404.03125 C 102.816406 -402.113281 102.492188 -400.234375 103.359375 -398.390625 C 104.234375 -396.554688 105.734375 -395.757812 107.859375 -396 L 109.15625 -396.15625 C 127.289062 -407.800781 148.753906 -415.070312 173.546875 -417.96875 C 201.765625 -421.25 228.863281 -419.207031 254.84375 -411.84375 Z M 145.703125 -82.625 C 142.378906 -81.363281 141.171875 -79.597656 142.078125 -77.328125 C 142.992188 -75.054688 145 -73.664062 148.09375 -73.15625 C 159.425781 -68.84375 171.332031 -66.113281 183.8125 -64.96875 C 196.289062 -63.820312 208.941406 -63.992188 221.765625 -65.484375 C 247.847656 -68.523438 272.664062 -76.832031 296.21875 -90.40625 C 297.726562 -92.320312 298.050781 -94.203125 297.1875 -96.046875 C 296.320312 -97.890625 294.816406 -98.6875 292.671875 -98.4375 L 291.390625 -98.296875 C 273.253906 -86.660156 251.789062 -79.394531 227 -76.5 C 198.78125 -73.207031 171.679688 -75.25 145.703125 -82.625 Z M 176.9375 -182.453125 C 173.945312 -182.097656 172.894531 -180.019531 173.78125 -176.21875 C 176.289062 -169.582031 180.507812 -164.984375 186.4375 -162.421875 C 192.363281 -159.867188 198.53125 -158.960938 204.9375 -159.703125 C 211.34375 -160.453125 217.34375 -162.890625 222.9375 -167.015625 C 224.820312 -169.390625 225.128906 -171.367188 223.859375 -172.953125 C 222.597656 -174.546875 220.898438 -175.21875 218.765625 -174.96875 C 217.484375 -174.820312 216.65625 -174.507812 216.28125 -174.03125 C 212.257812 -171.394531 207.679688 -169.78125 202.546875 -169.1875 C 198.273438 -168.6875 194.207031 -169.1875 190.34375 -170.6875 C 186.488281 -172.1875 183.882812 -175.019531 182.53125 -179.1875 C 181.800781 -181.707031 179.9375 -182.796875 176.9375 -182.453125 Z M 242.578125 -294.0625 C 240.828125 -301.664062 237.144531 -308.171875 231.53125 -313.578125 C 225.925781 -318.992188 219.007812 -321.65625 210.78125 -321.5625 C 207.351562 -321.164062 205.800781 -319.578125 206.125 -316.796875 C 206.445312 -314.023438 208.15625 -312.378906 211.25 -311.859375 C 218.570312 -312.285156 223.992188 -309.457031 227.515625 -303.375 C 231.046875 -297.289062 232.890625 -293.609375 233.046875 -292.328125 C 234.234375 -289.429688 236.113281 -288.132812 238.6875 -288.4375 C 241.675781 -288.78125 242.972656 -290.65625 242.578125 -294.0625 Z M 130.390625 -91.234375 C 126.960938 -90.835938 125.425781 -89.140625 125.78125 -86.140625 C 126.175781 -82.734375 128.085938 -81.226562 131.515625 -81.625 C 134.503906 -81.96875 135.800781 -83.84375 135.40625 -87.25 C 135.050781 -90.25 133.378906 -91.578125 130.390625 -91.234375 Z M 269.015625 -412.84375 C 266.023438 -412.5 264.734375 -410.613281 265.140625 -407.1875 C 265.484375 -404.195312 267.148438 -402.875 270.140625 -403.21875 C 273.554688 -403.613281 275.09375 -405.304688 274.75 -408.296875 C 274.34375 -411.722656 272.429688 -413.238281 269.015625 -412.84375 Z M 269.015625 -412.84375 "/></g></g></g><g fill="#000000" fill-opacity="1"><g transform="translate(963.655745, 932.271879)"><g><path d="M 225.328125 7.265625 C 186.597656 7.460938 154.40625 3.210938 128.75 -5.484375 C 103.101562 -14.179688 82.601562 -26.34375 67.25 -41.96875 C 51.894531 -57.601562 40.289062 -75.726562 32.4375 -96.34375 C 24.59375 -116.96875 19.425781 -139.109375 16.9375 -162.765625 C 14.457031 -186.421875 13.15625 -210.726562 13.03125 -235.6875 C 13.03125 -235.257812 13.125 -237.304688 13.3125 -241.828125 C 13.507812 -246.347656 13.566406 -256.566406 13.484375 -272.484375 C 13.410156 -288.410156 13.289062 -312.722656 13.125 -345.421875 C 13.082031 -354.890625 13.890625 -365.4375 15.546875 -377.0625 C 17.210938 -388.6875 21.242188 -399.894531 27.640625 -410.6875 C 34.046875 -421.488281 44.332031 -430.363281 58.5 -437.3125 C 72.675781 -444.269531 92.242188 -447.8125 117.203125 -447.9375 C 141.734375 -448.0625 161.003906 -444.710938 175.015625 -437.890625 C 189.035156 -431.078125 199.296875 -422.304688 205.796875 -411.578125 C 212.304688 -400.847656 216.453125 -389.675781 218.234375 -378.0625 C 220.023438 -366.457031 220.941406 -355.921875 220.984375 -346.453125 L 221.8125 -180.5625 C 221.820312 -177.976562 222.90625 -175.9375 225.0625 -174.4375 C 227.226562 -172.945312 229.171875 -172.207031 230.890625 -172.21875 L 232.828125 -172.21875 C 234.546875 -172.65625 236.257812 -173.628906 237.96875 -175.140625 C 239.6875 -176.660156 240.539062 -178.5 240.53125 -180.65625 L 239.703125 -346.546875 C 239.660156 -356.015625 240.46875 -366.5625 242.125 -378.1875 C 243.789062 -389.820312 247.820312 -401.035156 254.21875 -411.828125 C 260.625 -422.617188 270.800781 -431.488281 284.75 -438.4375 C 298.707031 -445.394531 317.953125 -448.9375 342.484375 -449.0625 C 367.441406 -449.1875 387.035156 -445.835938 401.265625 -439.015625 C 415.503906 -432.203125 425.875 -423.429688 432.375 -412.703125 C 438.882812 -401.972656 443.03125 -390.800781 444.8125 -379.1875 C 446.601562 -367.582031 447.519531 -357.046875 447.5625 -347.578125 L 448.75 -237.84375 C 448.875 -212.882812 447.8125 -188.566406 445.5625 -164.890625 C 443.320312 -141.210938 438.375 -119.023438 430.71875 -98.328125 C 423.070312 -77.640625 411.648438 -59.398438 396.453125 -43.609375 C 381.253906 -27.828125 360.875 -15.460938 335.3125 -6.515625 C 309.757812 2.429688 277.617188 7.003906 238.890625 7.203125 Z M 132.671875 -60.046875 C 130.523438 -60.035156 129.132812 -59.273438 128.5 -57.765625 C 127.863281 -56.265625 128.195312 -54.4375 129.5 -52.28125 C 137.6875 -48.445312 150.929688 -44.75 169.234375 -41.1875 C 187.546875 -37.625 207.894531 -35.894531 230.28125 -36 C 250.9375 -36.101562 271.796875 -38.359375 292.859375 -42.765625 C 313.921875 -47.171875 332.601562 -54.796875 348.90625 -65.640625 C 351.050781 -67.804688 351.6875 -69.742188 350.8125 -71.453125 C 349.945312 -73.171875 348.4375 -74.023438 346.28125 -74.015625 C 344.988281 -74.015625 343.914062 -73.796875 343.0625 -73.359375 C 329.757812 -64.679688 312.035156 -58.132812 289.890625 -53.71875 C 267.753906 -49.3125 245.066406 -47.050781 221.828125 -46.9375 C 205.898438 -46.851562 190.398438 -47.847656 175.328125 -49.921875 C 160.253906 -52.003906 147.113281 -55.164062 135.90625 -59.40625 C 135.039062 -59.84375 133.960938 -60.054688 132.671875 -60.046875 Z M 395.671875 -397.6875 L 399.5 -406.734375 C 383.125 -411.390625 368.265625 -413.6875 354.921875 -413.625 C 344.160156 -413.570312 333.625 -411.796875 323.3125 -408.296875 C 313 -404.804688 302.914062 -398.726562 293.0625 -390.0625 C 291.351562 -388.332031 290.929688 -386.5 291.796875 -384.5625 C 292.671875 -382.632812 293.96875 -381.675781 295.6875 -381.6875 C 296.976562 -381.6875 298.054688 -381.910156 298.921875 -382.359375 C 307.910156 -390.140625 317.128906 -395.664062 326.578125 -398.9375 C 336.035156 -402.21875 345.710938 -403.882812 355.609375 -403.9375 C 368.953125 -404 382.304688 -401.914062 395.671875 -397.6875 Z M 47.765625 -388.84375 C 46.054688 -387.113281 45.632812 -385.28125 46.5 -383.34375 C 47.375 -381.414062 48.671875 -380.457031 50.390625 -380.46875 C 51.679688 -380.46875 52.757812 -380.691406 53.625 -381.140625 C 62.613281 -388.921875 71.832031 -394.445312 81.28125 -397.71875 C 90.738281 -401 100.414062 -402.664062 110.3125 -402.71875 C 123.65625 -402.78125 137.007812 -400.695312 150.375 -396.46875 L 154.203125 -405.515625 C 137.828125 -410.171875 122.96875 -412.46875 109.625 -412.40625 C 98.863281 -412.34375 88.328125 -410.566406 78.015625 -407.078125 C 67.703125 -403.585938 57.617188 -397.507812 47.765625 -388.84375 Z M 207.015625 -172.09375 C 204.003906 -172.082031 202.71875 -170.140625 203.15625 -166.265625 C 204.039062 -163.253906 204.804688 -160.351562 205.453125 -157.5625 C 206.109375 -154.769531 207.3125 -152.085938 209.0625 -149.515625 C 215.113281 -143.085938 222.660156 -139.894531 231.703125 -139.9375 C 239.015625 -139.96875 245.882812 -142.046875 252.3125 -146.171875 C 258.75 -150.296875 262.816406 -155.800781 264.515625 -162.6875 C 264.492188 -166.5625 262.972656 -168.492188 259.953125 -168.484375 C 256.941406 -168.472656 255.226562 -166.957031 254.8125 -163.9375 C 253.96875 -159.195312 251.296875 -155.738281 246.796875 -153.5625 C 242.296875 -151.394531 237.675781 -150.296875 232.9375 -150.265625 C 223.46875 -150.222656 217.648438 -152.132812 215.484375 -156 C 215.046875 -158.15625 214.601562 -160.304688 214.15625 -162.453125 C 213.71875 -164.597656 213.0625 -166.53125 212.1875 -168.25 C 211.75 -170.832031 210.023438 -172.113281 207.015625 -172.09375 Z M 113.921875 -66.40625 C 111.359375 -65.101562 110.398438 -63.160156 111.046875 -60.578125 C 111.703125 -58.003906 113.539062 -56.722656 116.5625 -56.734375 L 119.140625 -56.75 C 121.285156 -57.625 122.570312 -59.132812 123 -61.28125 L 122.984375 -63.875 C 122.523438 -66.882812 120.789062 -68.382812 117.78125 -68.375 C 116.0625 -68.363281 114.773438 -67.707031 113.921875 -66.40625 Z M 258.59375 -183.328125 C 255.59375 -181.585938 255.0625 -179.863281 257 -178.15625 C 258.945312 -176.445312 260.785156 -175.597656 262.515625 -175.609375 C 266.390625 -175.628906 267.019531 -177.992188 264.40625 -182.703125 C 263.96875 -183.128906 263.425781 -183.554688 262.78125 -183.984375 C 262.132812 -184.421875 261.382812 -184.632812 260.53125 -184.625 C 260.09375 -184.625 259.445312 -184.191406 258.59375 -183.328125 Z M 162.671875 -390.703125 C 163.109375 -387.703125 164.832031 -386.207031 167.84375 -386.21875 C 170.425781 -386.226562 171.929688 -387.523438 172.359375 -390.109375 C 172.335938 -393.984375 170.816406 -395.914062 167.796875 -395.90625 C 164.785156 -395.894531 163.078125 -394.375 162.671875 -391.34375 Z M 407.96875 -392.5625 L 407.96875 -391.921875 C 408.40625 -388.921875 410.128906 -387.425781 413.140625 -387.4375 C 415.722656 -387.445312 417.222656 -388.75 417.640625 -391.34375 C 417.617188 -395.21875 416.101562 -397.144531 413.09375 -397.125 C 410.082031 -397.113281 408.375 -395.59375 407.96875 -392.5625 Z M 407.96875 -392.5625 "/></g></g></g><g fill="#000000" fill-opacity="1"><g transform="translate(1409.661137, 928.937229)"><g><path d="M 469.421875 -66.21875 L 466.375 -38 C 465.351562 -28.582031 463.472656 -18.175781 460.734375 -6.78125 C 457.992188 4.601562 452.941406 15.304688 445.578125 25.328125 C 438.210938 35.359375 427.425781 43.070312 413.21875 48.46875 C 399.007812 53.863281 380.140625 55.296875 356.609375 52.765625 C 331.796875 50.085938 311.28125 41.597656 295.0625 27.296875 C 278.851562 12.992188 270.445312 -7.390625 269.84375 -33.859375 L 255.375 -32.1875 C 255.40625 -24.382812 255.96875 -16.53125 257.0625 -8.625 C 258.15625 -0.71875 260.238281 7.078125 263.3125 14.765625 C 239.363281 19.984375 216.90625 21.457031 195.9375 19.1875 C 161.28125 15.457031 131.359375 2.925781 106.171875 -18.40625 C 80.992188 -39.738281 62.242188 -67.515625 49.921875 -101.734375 C 37.609375 -135.953125 33.734375 -174.242188 38.296875 -216.609375 C 43.242188 -262.390625 56.285156 -301.019531 77.421875 -332.5 C 98.566406 -363.988281 126.519531 -387.378906 161.28125 -402.671875 C 196.039062 -417.960938 236.359375 -423.566406 282.234375 -419.484375 L 290.578125 -418.578125 C 332.085938 -414.097656 366.265625 -404.894531 393.109375 -390.96875 C 419.953125 -377.039062 439.570312 -360.316406 451.96875 -340.796875 C 464.363281 -321.285156 469.40625 -300.832031 467.09375 -279.4375 C 465.570312 -265.320312 461.171875 -251.617188 453.890625 -238.328125 C 446.617188 -225.046875 437.019531 -214.289062 425.09375 -206.0625 C 413.164062 -197.832031 399.5 -194.546875 384.09375 -196.203125 C 370.832031 -197.628906 359.453125 -201.453125 349.953125 -207.671875 C 340.453125 -213.890625 330.945312 -220.109375 321.4375 -226.328125 C 311.9375 -232.546875 300.554688 -236.367188 287.296875 -237.796875 C 276.171875 -239.003906 266.695312 -236.457031 258.875 -230.15625 C 251.0625 -223.851562 245.113281 -215.835938 241.03125 -206.109375 C 236.945312 -196.378906 234.59375 -186.566406 233.96875 -176.671875 C 232.5 -143.066406 247.59375 -124.554688 279.25 -121.140625 C 282.601562 -132.035156 287.929688 -142.285156 295.234375 -151.890625 C 302.546875 -161.492188 313.191406 -168.894531 327.171875 -174.09375 C 341.148438 -179.289062 359.691406 -180.644531 382.796875 -178.15625 C 405.898438 -175.65625 423.710938 -170.269531 436.234375 -162 C 448.765625 -153.726562 457.554688 -143.90625 462.609375 -132.53125 C 467.660156 -121.164062 470.3125 -109.625 470.5625 -97.90625 C 470.8125 -86.195312 470.429688 -75.632812 469.421875 -66.21875 Z M 128.65625 -338.03125 C 124.632812 -332.832031 120.539062 -327.96875 116.375 -323.4375 C 112.207031 -318.90625 109.09375 -313.070312 107.03125 -305.9375 C 107.550781 -302.851562 109.097656 -301.171875 111.671875 -300.890625 C 114.234375 -300.617188 115.84375 -301.523438 116.5 -303.609375 C 117.914062 -308.660156 120.113281 -312.96875 123.09375 -316.53125 C 126.082031 -320.101562 129.28125 -323.65625 132.6875 -327.1875 C 153.800781 -350.445312 177.488281 -365.421875 203.75 -372.109375 C 230.007812 -378.804688 258.113281 -380.539062 288.0625 -377.3125 C 298.757812 -376.15625 309.816406 -373.332031 321.234375 -368.84375 C 332.660156 -364.363281 342.375 -360.066406 350.375 -355.953125 C 358.375 -351.847656 362.375 -349.796875 362.375 -349.796875 C 363.082031 -348.441406 363.867188 -347.71875 364.734375 -347.625 C 366.441406 -347.4375 368.367188 -348.304688 370.515625 -350.234375 C 372.671875 -352.160156 373.890625 -354.410156 374.171875 -356.984375 C 361.691406 -365.691406 347.421875 -372.859375 331.359375 -378.484375 C 315.304688 -384.109375 298.507812 -387.863281 280.96875 -389.75 C 253.164062 -392.75 225.515625 -390.210938 198.015625 -382.140625 C 170.523438 -374.078125 147.40625 -359.375 128.65625 -338.03125 Z M 424.953125 8.84375 C 426.046875 6.800781 426.234375 5.085938 425.515625 3.703125 C 424.796875 2.328125 423.578125 1.546875 421.859375 1.359375 C 420.148438 1.171875 418.535156 2.078125 417.015625 4.078125 C 412.765625 11.421875 404.847656 16.628906 393.265625 19.703125 C 381.679688 22.773438 369.6875 23.644531 357.28125 22.3125 C 348.71875 21.382812 340.816406 19.34375 333.578125 16.1875 C 326.347656 13.03125 321.085938 8.671875 317.796875 3.109375 C 316.742188 0.835938 316.238281 -1.484375 316.28125 -3.859375 C 316.320312 -6.242188 316.023438 -8.550781 315.390625 -10.78125 C 315.242188 -13.382812 313.671875 -14.847656 310.671875 -15.171875 C 307.679688 -15.492188 306.191406 -13.707031 306.203125 -9.8125 C 306.734375 -6.726562 307.160156 -3.648438 307.484375 -0.578125 C 307.804688 2.484375 308.472656 5.363281 309.484375 8.0625 C 313.015625 15.363281 318.894531 20.972656 327.125 24.890625 C 335.363281 28.816406 344.617188 31.332031 354.890625 32.4375 C 368.578125 33.914062 382.351562 32.585938 396.21875 28.453125 C 410.082031 24.316406 419.660156 17.78125 424.953125 8.84375 Z M 112.46875 -73.5625 C 109.46875 -73.882812 107.976562 -72.097656 108 -68.203125 C 109.695312 -55.898438 115.210938 -45.890625 124.546875 -38.171875 C 133.890625 -30.460938 144.722656 -24.535156 157.046875 -20.390625 C 169.367188 -16.242188 180.832031 -13.164062 191.4375 -11.15625 C 194.945312 -11.644531 196.722656 -13.078125 196.765625 -15.453125 C 196.804688 -17.828125 195.59375 -19.582031 193.125 -20.71875 C 184.21875 -22.539062 174.109375 -25.144531 162.796875 -28.53125 C 151.484375 -31.925781 141.414062 -36.910156 132.59375 -43.484375 C 123.78125 -50.066406 118.644531 -58.625 117.1875 -69.15625 C 117.039062 -71.769531 115.46875 -73.238281 112.46875 -73.5625 Z M 218.859375 -217.25 C 219.398438 -214.164062 220.953125 -212.488281 223.515625 -212.21875 C 226.085938 -211.9375 227.703125 -212.84375 228.359375 -214.9375 C 229.992188 -222.125 233.28125 -230.535156 238.21875 -240.171875 C 243.15625 -249.816406 250.441406 -255.195312 260.078125 -256.3125 C 262.828125 -257.738281 264.101562 -259.546875 263.90625 -261.734375 C 263.71875 -263.921875 261.910156 -265.195312 258.484375 -265.5625 C 247.460938 -263.726562 238.710938 -257.859375 232.234375 -247.953125 C 225.753906 -238.046875 221.296875 -227.8125 218.859375 -217.25 Z M 312.390625 -127.328125 C 310.691406 -123.609375 311.976562 -121.519531 316.25 -121.0625 C 318.820312 -120.78125 320.4375 -121.6875 321.09375 -123.78125 C 323.84375 -129.113281 329.316406 -133.710938 337.515625 -137.578125 C 345.722656 -141.453125 353.035156 -143.046875 359.453125 -142.359375 C 362.023438 -142.078125 363.710938 -141.679688 364.515625 -141.171875 L 365.8125 -141.03125 C 368.800781 -140.707031 370.429688 -141.828125 370.703125 -144.390625 C 370.984375 -146.960938 369.890625 -148.8125 367.421875 -149.9375 C 365.804688 -150.988281 363.070312 -151.71875 359.21875 -152.125 C 350.664062 -153.050781 341.5625 -150.894531 331.90625 -145.65625 C 322.25 -140.425781 315.742188 -134.316406 312.390625 -127.328125 Z M 386.21875 -131.6875 L 388.140625 -131.484375 C 391.660156 -131.960938 393.359375 -133.613281 393.234375 -136.4375 C 393.109375 -139.269531 391.335938 -140.875 387.921875 -141.25 C 384.492188 -141.613281 382.628906 -140.40625 382.328125 -137.625 C 382.023438 -134.84375 383.320312 -132.863281 386.21875 -131.6875 Z M 385.5625 -336.265625 C 385.675781 -333.234375 387.234375 -331.554688 390.234375 -331.234375 C 391.941406 -331.046875 393.050781 -331.359375 393.5625 -332.171875 C 396.707031 -333.117188 398.203125 -334.898438 398.046875 -337.515625 C 397.890625 -340.128906 396.101562 -341.625 392.6875 -342 L 392.03125 -342.0625 C 389.039062 -342.382812 387.171875 -341.070312 386.421875 -338.125 C 386.328125 -337.269531 386.039062 -336.648438 385.5625 -336.265625 Z M 99.828125 -100.90625 C 95.554688 -101.363281 94.207031 -98.910156 95.78125 -93.546875 L 96.875 -91.46875 C 98.007812 -90.050781 99.222656 -89.273438 100.515625 -89.140625 C 102.222656 -88.953125 103.609375 -89.773438 104.671875 -91.609375 C 105.734375 -93.441406 105.710938 -95.285156 104.609375 -97.140625 C 104.648438 -97.578125 104.296875 -98.257812 103.546875 -99.1875 C 101.929688 -100.238281 100.691406 -100.8125 99.828125 -100.90625 Z M 99.828125 -100.90625 "/></g></g></g><g fill="#000000" fill-opacity="1"><g transform="translate(1857.674632, 976.407785)"><g><path d="M 459.015625 6.015625 C 456.953125 15.253906 453.8125 25.359375 449.59375 36.328125 C 445.375 47.296875 438.941406 57.328125 430.296875 66.421875 C 421.648438 75.515625 409.644531 81.867188 394.28125 85.484375 C 378.925781 89.109375 359.066406 88.195312 334.703125 82.75 C 310.765625 77.40625 292.722656 69.847656 280.578125 60.078125 C 268.429688 50.304688 260.382812 39.46875 256.4375 27.5625 C 252.488281 15.65625 250.941406 3.84375 251.796875 -7.875 C 252.648438 -19.601562 254.109375 -30.085938 256.171875 -39.328125 L 269.125 -97.265625 C 269.6875 -99.785156 269.082031 -102.015625 267.3125 -103.953125 C 265.539062 -105.898438 263.601562 -107.109375 261.5 -107.578125 L 260.25 -107.859375 C 258.46875 -107.804688 256.570312 -107.234375 254.5625 -106.140625 C 252.5625 -105.046875 251.328125 -103.445312 250.859375 -101.34375 L 237.90625 -43.40625 C 235.84375 -34.164062 232.703125 -24.0625 228.484375 -13.09375 C 224.265625 -2.125 217.828125 7.90625 209.171875 17 C 200.523438 26.09375 188.628906 32.472656 173.484375 36.140625 C 158.335938 39.804688 138.796875 38.960938 114.859375 33.609375 C 90.503906 28.171875 72.144531 20.539062 59.78125 10.71875 C 47.414062 0.90625 39.257812 -9.953125 35.3125 -21.859375 C 31.363281 -33.773438 29.816406 -45.59375 30.671875 -57.3125 C 31.523438 -69.03125 32.984375 -79.507812 35.046875 -88.75 L 89.8125 -333.78125 C 91.882812 -343.03125 95.023438 -353.132812 99.234375 -364.09375 C 103.453125 -375.0625 109.882812 -385.085938 118.53125 -394.171875 C 127.175781 -403.265625 139.179688 -409.617188 154.546875 -413.234375 C 169.910156 -416.859375 189.769531 -415.953125 214.125 -410.515625 C 238.0625 -405.160156 256.101562 -397.597656 268.25 -387.828125 C 280.394531 -378.054688 288.441406 -367.21875 292.390625 -355.3125 C 296.347656 -343.40625 297.898438 -331.59375 297.046875 -319.875 C 296.203125 -308.164062 294.742188 -297.6875 292.671875 -288.4375 L 283.390625 -246.875 C 282.828125 -244.351562 283.429688 -242.125 285.203125 -240.1875 C 286.972656 -238.25 288.695312 -237.09375 290.375 -236.71875 L 292.265625 -236.296875 C 294.035156 -236.335938 295.925781 -236.90625 297.9375 -238 C 299.945312 -239.09375 301.1875 -240.691406 301.65625 -242.796875 L 310.9375 -284.359375 C 313.007812 -293.609375 316.148438 -303.710938 320.359375 -314.671875 C 324.578125 -325.628906 331.007812 -335.65625 339.65625 -344.75 C 348.300781 -353.84375 360.195312 -360.222656 375.34375 -363.890625 C 390.488281 -367.554688 410.03125 -366.71875 433.96875 -361.375 C 458.332031 -355.925781 476.691406 -348.289062 489.046875 -338.46875 C 501.410156 -328.65625 509.566406 -317.796875 513.515625 -305.890625 C 517.460938 -293.984375 519.007812 -282.171875 518.15625 -270.453125 C 517.3125 -258.742188 515.851562 -248.265625 513.78125 -239.015625 Z M 300.953125 35.53125 C 315.878906 43.707031 329.851562 49.25 342.875 52.15625 C 353.800781 54.601562 364.703125 55.164062 375.578125 53.84375 C 386.453125 52.53125 397.398438 48.921875 408.421875 43.015625 C 410.984375 41.390625 412.03125 39.640625 411.5625 37.765625 C 411.101562 35.898438 409.828125 34.734375 407.734375 34.265625 C 406.472656 33.984375 405.375 33.953125 404.4375 34.171875 C 393.925781 39.765625 383.703125 43.101562 373.765625 44.1875 C 363.828125 45.28125 354.019531 44.742188 344.34375 42.578125 C 331.332031 39.671875 318.785156 34.664062 306.703125 27.5625 Z M 80.484375 -13.765625 C 95.410156 -5.578125 109.378906 -0.03125 122.390625 2.875 C 133.304688 5.3125 144.203125 5.875 155.078125 4.5625 C 165.953125 3.25 176.898438 -0.363281 187.921875 -6.28125 C 190.492188 -7.90625 191.546875 -9.648438 191.078125 -11.515625 C 190.617188 -13.390625 189.335938 -14.5625 187.234375 -15.03125 C 185.972656 -15.3125 184.875 -15.335938 183.9375 -15.109375 C 173.4375 -9.515625 163.210938 -6.175781 153.265625 -5.09375 C 143.328125 -4.007812 133.53125 -4.546875 123.875 -6.703125 C 110.851562 -9.609375 98.300781 -14.617188 86.21875 -21.734375 Z M 140.828125 -372.65625 C 138.773438 -371.351562 137.957031 -369.660156 138.375 -367.578125 C 138.789062 -365.503906 139.835938 -364.28125 141.515625 -363.90625 C 142.773438 -363.625 143.875 -363.597656 144.8125 -363.828125 C 155.332031 -369.421875 165.5625 -372.757812 175.5 -373.84375 C 185.445312 -374.925781 195.253906 -374.390625 204.921875 -372.234375 C 217.929688 -369.316406 230.476562 -364.304688 242.5625 -357.203125 L 248.3125 -365.171875 C 233.382812 -373.359375 219.410156 -378.910156 206.390625 -381.828125 C 195.890625 -384.171875 185.222656 -384.789062 174.390625 -383.6875 C 163.566406 -382.582031 152.378906 -378.90625 140.828125 -372.65625 Z M 468.796875 -315.890625 C 453.878906 -324.078125 439.90625 -329.628906 426.875 -332.546875 C 416.375 -334.890625 405.707031 -335.503906 394.875 -334.390625 C 384.050781 -333.285156 372.867188 -329.613281 361.328125 -323.375 C 359.273438 -322.070312 358.457031 -320.378906 358.875 -318.296875 C 359.289062 -316.222656 360.335938 -315 362.015625 -314.625 C 363.273438 -314.34375 364.375 -314.316406 365.3125 -314.546875 C 375.8125 -320.128906 386.035156 -323.460938 395.984375 -324.546875 C 405.929688 -325.640625 415.734375 -325.109375 425.390625 -322.953125 C 438.421875 -320.035156 450.976562 -315.023438 463.0625 -307.921875 Z M 267.6875 -241.78125 C 265.59375 -242.25 263.582031 -241.15625 261.65625 -238.5 C 261.269531 -228.882812 263.148438 -221.519531 267.296875 -216.40625 C 271.453125 -211.289062 276.890625 -207.984375 283.609375 -206.484375 C 293.691406 -204.222656 304.359375 -205.582031 315.609375 -210.5625 C 318.179688 -212.195312 319.128906 -213.96875 318.453125 -215.875 C 317.773438 -217.789062 316.390625 -218.984375 314.296875 -219.453125 C 313.035156 -219.734375 312.144531 -219.710938 311.625 -219.390625 C 307.707031 -217.617188 303.457031 -216.363281 298.875 -215.625 C 294.300781 -214.882812 290.128906 -214.9375 286.359375 -215.78125 C 282.160156 -216.71875 278.554688 -218.84375 275.546875 -222.15625 C 272.535156 -225.476562 271.101562 -230.429688 271.25 -237.015625 C 271.40625 -239.628906 270.21875 -241.21875 267.6875 -241.78125 Z M 289.03125 -121.25 C 286.09375 -121.90625 284.128906 -121.019531 283.140625 -118.59375 C 282.160156 -116.164062 282.835938 -114.253906 285.171875 -112.859375 C 288.765625 -111.171875 290.507812 -108.132812 290.40625 -103.75 C 290.3125 -99.363281 289.617188 -94.773438 288.328125 -89.984375 C 287.046875 -85.203125 286.125 -81.554688 285.5625 -79.046875 C 285.726562 -75.910156 287.070312 -74.0625 289.59375 -73.5 C 292.53125 -72.84375 294.378906 -74.195312 295.140625 -77.5625 C 296.828125 -85.125 298.316406 -93.273438 299.609375 -102.015625 C 300.910156 -110.765625 297.382812 -117.175781 289.03125 -121.25 Z M 327.515625 -222.453125 C 325.003906 -223.015625 323.921875 -221.601562 324.265625 -218.21875 C 324.609375 -214.832031 325.617188 -212.953125 327.296875 -212.578125 C 328.140625 -212.390625 329.378906 -212.992188 331.015625 -214.390625 C 332.554688 -215.367188 332.769531 -217.304688 331.65625 -220.203125 C 330.582031 -221.328125 329.203125 -222.078125 327.515625 -222.453125 Z M 71.453125 -35.609375 C 69.347656 -36.078125 67.597656 -35.148438 66.203125 -32.828125 C 65.359375 -29.046875 66.40625 -26.828125 69.34375 -26.171875 C 72.28125 -25.515625 74.289062 -26.609375 75.375 -29.453125 L 75.515625 -30.078125 C 75.742188 -33.109375 74.390625 -34.953125 71.453125 -35.609375 Z M 253.25 -348.859375 C 253.007812 -345.828125 254.359375 -343.984375 257.296875 -343.328125 C 259.816406 -342.765625 261.570312 -343.695312 262.5625 -346.125 C 263.40625 -349.894531 262.351562 -352.109375 259.40625 -352.765625 C 256.46875 -353.421875 254.460938 -352.328125 253.390625 -349.484375 Z M 473.875 -300.203125 L 473.734375 -299.578125 C 473.503906 -296.546875 474.859375 -294.703125 477.796875 -294.046875 C 480.316406 -293.472656 482.066406 -294.398438 483.046875 -296.828125 C 483.890625 -300.597656 482.84375 -302.816406 479.90625 -303.484375 C 476.96875 -304.140625 474.957031 -303.046875 473.875 -300.203125 Z M 291.953125 13.671875 C 289.847656 13.203125 288.09375 14.128906 286.6875 16.453125 C 285.84375 20.234375 286.894531 22.453125 289.84375 23.109375 C 292.78125 23.765625 294.785156 22.671875 295.859375 19.828125 L 296 19.203125 C 296.238281 16.171875 294.890625 14.328125 291.953125 13.671875 Z M 291.953125 13.671875 "/></g></g></g></svg>